<svg xmlns="http://www.w3.org/2000/svg" xmlns:xlink="http://www.w3.org/1999/xlink" xmlns:lucid="lucid" width="2519.24" height="1685.17"><g transform="translate(45.31988128518128 330.13075938482075)" lucid:page-tab-id="0_0"><path d="M1005.8 856.1a6 6 0 0 1 6-6h527.36a6 6 0 0 1 6 6v472.94a6 6 0 0 1-6 6H1011.8a6 6 0 0 1-6-6zM-25.32 91.94a6 6 0 0 1 6-6H452.4a6 6 0 0 1 6 6v472.92a6 6 0 0 1-6 6H-19.32a6 6 0 0 1-6-6zM938.78 73.28a6 6 0 0 1 6-6h492.06a6 6 0 0 1 6 6v415.5a6 6 0 0 1-6 6.02H944.78a6 6 0 0 1-6-6zM1911.4 80.84a6 6 0 0 1 6-6h530.52a6 6 0 0 1 6 6v416.93a6 6 0 0 1-6 6H1917.4a6 6 0 0 1-6-6zM468.4-304.13a6 6 0 0 1 6-6h467.3a6 6 0 0 1 6 6V-17.1a6 6 0 0 1-6 6H474.4a6 6 0 0 1-6-6z" stroke="#3a414a" fill-opacity="0"/><path d="M161.04 389.26v3.6l55.5 31.2 49.62-27.96v11.28l-49.62 28.2-52.72-29.88-2.78 1.44v21.72l55.5 31.08 49.62-27.84v11.28l-49.62 28.08-52.72-29.88-2.78 1.56v3.6l55.5 31.2 55.5-31.2v-21.6l-2.77-1.56-52.73 29.88-49.6-28.08v-11.16l49.6 27.84 55.5-31.2V389.5l-2.77-1.44-52.73 29.88-47.06-26.76 47.06-26.52 38.74 21.84 3.44-1.8v-3l-42.18-23.76z" stroke="#000" stroke-opacity="0" fill="#ff3621"/><path d="M258.62 381.67L269.2 388l-52.64 29.88-47.05-26.7 47.06-26.46 38.67 21.84 3.4-1.9z" stroke="#000" stroke-opacity="0" fill-opacity="0"/><path d="M161.04 392.86v14.4l2.84-1.6 52.66 29.92 49.62-28.1v-11.3l-49.62 27.95z" stroke="#000" stroke-opacity="0" fill-opacity="0"/><path d="M272.07 410.86v14.27l-2.83-1.54-52.67 29.86-49.6-28.12v-11.12l49.6 27.78z" stroke="#000" stroke-opacity="0" fill-opacity="0"/><path d="M161.04 428.86v14.3l2.84-1.57 52.66 29.86 49.62-28.08v-11.2L216.54 460z" stroke="#000" stroke-opacity="0" fill-opacity="0"/><use xlink:href="#a" transform="matrix(1,0,0,1,131.041689484421,486.9363940934783) translate(33.025 14.4)"/><use xlink:href="#b" transform="matrix(1,0,0,1,131.041689484421,486.9363940934783) translate(69.975 14.4)"/><path d="M1437.9 931.65h-62.58c-2.42 0-4.35 1.94-4.35 4.36v14.28h71.28V936c0-2.4-1.92-4.35-4.35-4.35z" stroke="#000" stroke-opacity="0" fill="#bc3200"/><path d="M1445.27 940.36h-77.3c-3.5 0-6.3 2.82-6.3 6.3v4.96h89.9v-4.95c0-3.5-2.8-6.3-6.3-6.3z" stroke="#000" stroke-opacity="0" fill="#d13600"/><path d="M1454.35 949.3h-95.47c-3.46 0-6.26 2.87-6.26 6.35v89.65c0 3.48 2.8 6.35 6.37 6.35h95.24c3.57 0 6.38-2.87 6.38-6.35v-89.65c0-3.48-2.8-6.34-6.27-6.34z" stroke="#000" stroke-opacity="0" fill="#e15815"/><path d="M1384.5 958.54c-6.63 0-12 5.38-12 12 0 6.64 5.37 12 12 12 6.6 0 11.98-5.36 11.98-12 0-6.62-5.38-12-12-12zm0 19.8c-4.3 0-7.8-3.52-7.8-7.82 0-4.3 3.5-7.8 7.8-7.8 4.28 0 7.78 3.5 7.78 7.8s-3.5 7.8-7.8 7.8z" stroke="#000" stroke-opacity="0" fill="#ffb290"/><path d="M1389 981.26h-8.9v24.34h8.9v-24.34z" stroke="#000" stroke-opacity="0" fill="#ffb290"/><path d="M1441.44 970.76c0-6.7-5.38-12.04-12-12.04-6.6 0-11.98 5.34-11.98 12.04 0 5.08 3.17 9.4 7.7 11.18v8.23l-45.06 14.9h-.06v15.27c-4.4 1.78-7.52 6.1-7.52 11.1 0 6.7 5.38 12.04 12 12.04 6.6 0 12-5.34 12-12.04 0-4.9-3.05-9.24-7.32-11.02v-9.5l44.73-14.82-.07-.17h.07v-14.07c4.4-1.78 7.5-6.1 7.5-11.1zm-49.14 60.77c0 4.24-3.5 7.8-7.78 7.8-4.35 0-7.8-3.56-7.8-7.8 0-4.33 3.45-7.8 7.8-7.8 4.27 0 7.78 3.47 7.78 7.8zm37.15-53.06c-4.28 0-7.8-3.48-7.8-7.8 0-4.24 3.52-7.8 7.8-7.8 4.27 0 7.78 3.56 7.78 7.8 0 4.32-3.5 7.8-7.78 7.8z" stroke="#000" stroke-opacity="0" fill="#ffdbca"/><use xlink:href="#c" transform="matrix(1,0,0,1,1322.6171530811782,1060.6472113212326) translate(32.05 14.4)"/><use xlink:href="#d" transform="matrix(1,0,0,1,1322.6171530811782,1060.6472113212326) translate(84 14.4)"/><path d="M2294.2 274.66v3.6l55.5 31.2 49.6-27.96v11.28l-49.6 28.2-52.74-29.88-2.77 1.44v21.72l55.5 31.08 49.6-27.84v11.28l-49.6 28.08-52.74-29.88-2.77 1.56v3.6l55.5 31.2 55.5-31.2v-21.6l-2.8-1.56-52.7 29.88-49.63-28.08v-11.16l49.62 27.84 55.5-31.2V274.9l-2.8-1.44-52.7 29.88-47.07-26.76 47.06-26.52 38.73 21.84 3.44-1.8v-3l-42.18-23.76z" stroke="#000" stroke-opacity="0" fill="#ff3621"/><path d="M2391.77 267.07l10.57 6.33-52.63 29.88-47.04-26.7 47.05-26.46 38.68 21.84 3.4-1.9z" stroke="#000" stroke-opacity="0" fill-opacity="0"/><path d="M2294.2 278.26v14.4l2.83-1.6L2349.7 321l49.6-28.1v-11.3l-49.6 27.95z" stroke="#000" stroke-opacity="0" fill-opacity="0"/><path d="M2405.22 296.26v14.27l-2.84-1.54-52.66 29.86-49.6-28.12v-11.12l49.6 27.78z" stroke="#000" stroke-opacity="0" fill-opacity="0"/><path d="M2294.2 314.26v14.3l2.83-1.57 52.66 29.86 49.6-28.08v-11.2l-49.6 27.82z" stroke="#000" stroke-opacity="0" fill-opacity="0"/><use xlink:href="#e" transform="matrix(1,0,0,1,2264.1888903200547,372.33595669222404) translate(6.049999999999997 14.4)"/><use xlink:href="#b" transform="matrix(1,0,0,1,2264.1888903200547,372.33595669222404) translate(96.95 14.4)"/><path d="M109.4 141.47H57.8c-2.24 0-4.1 1.77-4.1 4.02v110.15c0 2.24 1.86 4.02 4.1 4.02h89.43c2.24 0 4-1.78 4-4.02v-72.93c0-2.25-1.76-4.02-4-4.02h-29.75c-2.24 0-4-1.77-4-4.02v-29.2-.1c0-2.14-1.85-3.9-4.1-3.9z" stroke="#000" stroke-opacity="0" fill="#fff"/><path d="M107.54 146.57v27.72c0 5.63 4.55 10.07 10.2 10.2h28.1v70.07h-86.7v-108h48.4m1.88-6H57.15c-2.28 0-4.16 1.8-4.16 4.08V256.5c0 2.27 1.87 4.07 4.15 4.07h90.68c2.28 0 4.16-1.8 4.16-4.08v-74.05c0-2.28-1.9-4.08-4.17-4.08h-30.1c-2.27 0-4.15-1.8-4.15-4.08v-29.65c0-2.28-1.78-4.08-4.16-4.08z" stroke="#000" stroke-opacity="0" fill="url(#f)"/><path d="M150.4 179.15l-38.2-37.68v30.7c-.05 3.85 3.1 6.94 6.95 6.98z" stroke="#000" stroke-opacity="0" fill="#0078d4"/><path d="M72.87 195.17h59.24c2.7 0 4.05 1.34 4.05 4.03v.9c0 2.67-1.35 4-4.04 4H72.88c-2.7 0-4.04-1.33-4.04-4v-.9c0-2.7 1.34-4.03 4.04-4.03zM72.87 211.25h59.24c2.7 0 4.05 1.34 4.05 4.03v.9c0 2.67-1.35 4-4.04 4H72.88c-2.7 0-4.04-1.33-4.04-4v-.9c0-2.7 1.34-4.03 4.04-4.03zM72.9 227.2h34.32c2.72 0 4.08 1.35 4.08 4.04v.9c0 2.67-1.36 4-4.08 4h-34.3c-2.73 0-4.1-1.33-4.1-4v-.9c0-2.7 1.37-4.03 4.1-4.03z" stroke="#000" stroke-opacity="0" fill="#5ea0ef"/><use xlink:href="#g" transform="matrix(1,0,0,1,22.988949665418673,269.5733278374633) translate(23.049999999999997 14.4)"/><path d="M351.57 141.47h-51.6c-2.23 0-4.08 1.77-4.08 4.02v110.15c0 2.24 1.84 4.02 4.08 4.02h89.42c2.25 0 4-1.78 4-4.02v-72.93c0-2.25-1.75-4.02-4-4.02h-29.74c-2.24 0-4-1.77-4-4.02v-29.2-.1c0-2.14-1.85-3.9-4.1-3.9z" stroke="#000" stroke-opacity="0" fill="#fff"/><path d="M349.72 146.57v27.72c0 5.63 4.55 10.07 10.2 10.2H388v70.07h-86.7v-108h48.4m1.88-6h-52.27c-2.28 0-4.16 1.8-4.16 4.08V256.5c0 2.27 1.88 4.07 4.16 4.07H390c2.3 0 4.17-1.8 4.17-4.08v-74.05c0-2.28-1.88-4.08-4.16-4.08h-30.1c-2.26 0-4.14-1.8-4.14-4.08v-29.65c0-2.28-1.8-4.08-4.16-4.08z" stroke="#000" stroke-opacity="0" fill="url(#h)"/><path d="M392.58 179.15l-38.2-37.68v30.7c-.05 3.85 3.08 6.94 6.94 6.98z" stroke="#000" stroke-opacity="0" fill="#0078d4"/><path d="M315.05 195.17h59.24c2.68 0 4.03 1.34 4.03 4.03v.9c0 2.67-1.35 4-4.04 4h-59.25c-2.7 0-4.04-1.33-4.04-4v-.9c0-2.7 1.35-4.03 4.05-4.03zM315.05 211.25h59.24c2.68 0 4.03 1.34 4.03 4.03v.9c0 2.67-1.35 4-4.04 4h-59.25c-2.7 0-4.04-1.33-4.04-4v-.9c0-2.7 1.35-4.03 4.05-4.03zM315.08 227.2h34.32c2.72 0 4.08 1.35 4.08 4.04v.9c0 2.67-1.36 4-4.08 4H315.1c-2.73 0-4.1-1.33-4.1-4v-.9c0-2.7 1.37-4.03 4.08-4.03z" stroke="#000" stroke-opacity="0" fill="#5ea0ef"/><use xlink:href="#i" transform="matrix(1,0,0,1,265.1678127468098,269.5733278374633) translate(50.05 14.4)"/><a xlink:href="http://train.py" target="_blank" transform="matrix(1,0,0,1,265.1678127468098,269.5733278374633)"><path class="lucid-link lucid-hotspot lucid-overlay-hotspot" fill-opacity="0" d="M50.05 0h58.9v21.6h-58.9z"/></a><path d="M1112.2 1035.2l16.24 16.32h26.4c3.2 0 5.8-2.6 5.8-5.8v-61.05l-48.43 48.54c-.58.54-.58 1.48 0 2z" stroke="#000" stroke-opacity="0" fill="#235dc1"/><path d="M1070.82 967.37v26.44l16.3 16.27c.52.6 1.45.6 2 0l48.45-48.53h-60.94c-3.2 0-5.8 2.6-5.8 5.83z" stroke="#000" stroke-opacity="0" fill="#3b6ec6"/><path d="M1131.84 937.8l-39.2 59.97c-1.27 1.98-.98 4.66.7 6.44l25.04 25.1c1.78 1.68 4.45 1.98 6.43.7l59.88-39.27c3.86-2.48 6.14-6.74 6.14-11.3V937.6c0-3.28-2.67-5.95-5.94-5.95h-41.76c-4.55 0-8.8 2.28-11.28 6.14z" stroke="#000" stroke-opacity="0" fill="#5d8de4"/><path d="M1079.63 1043.28v-21.2h-8.8v29.57h29.95v-8.37h-21.15z" stroke="#000" stroke-opacity="0" fill="#9fbbf0"/><path d="M1160.8 976.07c8.22 0 14.9-6.7 14.9-14.93 0-8.24-6.68-14.93-14.9-14.93-8.24 0-14.92 6.7-14.92 14.94 0 8.24 6.68 14.93 14.9 14.93z" stroke="#000" stroke-opacity="0" fill="#adc5f2"/><path d="M1134.12 981.14l-31.9 31.94 7.35 7.35 31.9-31.94-7.35-7.36z" stroke="#000" stroke-opacity="0" fill="#6c9aee"/><path d="M1103.23 1026.78l6.34-6.35-7.35-7.36-6.34 6.35 7.35 7.36z" stroke="#000" stroke-opacity="0" fill="#88acef"/><path d="M1073.2 965.6v82h83.55v-82zm.1.07h83.37v81.85h-83.38z" stroke="#000" stroke-opacity="0" stroke-width="0" fill-opacity="0"/><use xlink:href="#c" transform="matrix(1,0,0,1,1040.8188634123796,1060.6472113212326) translate(27.599999999999994 14.4)"/><use xlink:href="#j" transform="matrix(1,0,0,1,1040.8188634123796,1060.6472113212326) translate(79.55 14.4)"/><path d="M1335.48 1190.23v73.32l-30.36 24.72-46.67-17.04v17.04l-25.92-33.96 76.9 5.65.38-66zm-25.67 3.72l-42.95-25.68v17.04l-39.72 11.65-11.65 15.36v34.7l17.05 7.3v-44.4z" stroke="#000" stroke-opacity="0" stroke-width="3.75" fill="#0078d4"/><path d="M1266.85 1168.27l42.96 25.68 25.68-3.72v73.32l-30.36 24.72-46.67-17.04v17.04l-25.92-33.96-17.05-7.3v-34.7l11.64-15.35 39.73-11.64z" stroke="#000" stroke-opacity="0" stroke-width="0" fill-opacity="0"/><use xlink:href="#c" transform="matrix(1,0,0,1,1185.4853398340258,1297.2732882944888) translate(31.549999999999997 14.4)"/><use xlink:href="#k" transform="matrix(1,0,0,1,1185.4853398340258,1297.2732882944888) translate(83.5 14.4)"/><path d="M606.5-212.7L554-182.8v59.87l52.5 30.24 52.5-29.87v-60zm42.85 83.77L606.5-104.2l-42.83-24.37v-48.24l42.84-24.73 42.85 24.72z" stroke="#000" stroke-opacity="0" fill="#0078d4"/><path d="M606.5-212.7L554-182.72l9.67 5.92 42.84-24.7 42.85 24.7 9.66-5.93-52.5-29.96z" stroke="#000" stroke-opacity="0" fill="url(#l)"/><path d="M631.54-142.83c-.58-.9-1.23-1.53-2.17-2-5.7-12.33-16.4-20.35-29.98-22.24l43.34-24.97-10.04-5.77-49.34 28.47c-1.6.9-2.53 2.44-2.53 4.33 0 2.7 2.24 4.95 5.05 4.95.22 0 .37-.1.58-.18l.87 3.52c13.07-3.08 26.15 2.96 32.3 14.95l-49.13 28.3 10.04 5.76 49.12-28.37c.73-.36 1.23-.9 1.66-1.54l.5-.1c-.06-.18-.14-.36-.14-.63.73-1.44.66-3.06-.14-4.5z" stroke="#000" stroke-opacity="0" fill="#50e6ff"/><path d="M627.13-152.54c-6.87 0-12.35 5.52-12.35 12.37 0 6.8 5.48 12.32 12.35 12.32 6.8 0 12.35-5.5 12.35-12.32 0-6.85-5.55-12.37-12.35-12.37zm-41.34-25c-6.8 0-12.36 5.53-12.36 12.33 0 6.85 5.55 12.36 12.35 12.36 6.86 0 12.34-5.5 12.34-12.37 0-6.8-5.48-12.33-12.35-12.33z" stroke="#000" stroke-opacity="0" fill="url(#m)"/><use xlink:href="#c" transform="matrix(1,0,0,1,524.0129027156477,-83.68608395008113) translate(21.525 14.4)"/><use xlink:href="#n" transform="matrix(1,0,0,1,524.0129027156477,-83.68608395008113) translate(73.475 14.4)"/><use xlink:href="#o" transform="matrix(1,0,0,1,524.0129027156477,-83.68608395008113) translate(46.55 36)"/><path d="M694.03-153.1l1 .23.94.4.86.52.78.67.67.77.54.86.4.94.23 1 .08 1V17.95l-.07 1-.23 1-.4.93-.53.87-.66.77-.77.66-.87.54-.94.4-1 .22-1 .08h-674l-.9.07-.83.2-.8.34-.74.46-.66.56-.56.65-.45.75-.34.8-.2.83-.07.88v164.6l.06.87.2.84.33.8.44.74.56.66.66.56.73.45.8.33.83.2.88.07h33.5v1H18.96l-1-.07-1-.24-.93-.4-.87-.53-.78-.66-.67-.77-.53-.88-.4-.94-.23-1-.08-1V29.93l.07-1 .24-1 .4-.93.53-.88.66-.77.77-.67.87-.53.94-.4 1-.23 1-.08h674l.9-.07.83-.2.8-.33.75-.45.65-.57.56-.65.45-.74.34-.8.2-.84.07-.88v-164.6l-.06-.87-.2-.83-.33-.8-.44-.74-.56-.65-.65-.56-.74-.46-.8-.3-.83-.22-.88-.07h-17.6v-1h17.63z" stroke="#3a414a" stroke-width=".05" fill="#3a414a"/><path d="M53 201.07h-.52v-1h.5z" fill="#3a414a"/><path d="M53 201.1h-.55v-1.05H53zm-.5-1v.95h.46v-.95z" stroke="#3a414a" stroke-width=".05" fill="#3a414a"/><path d="M674.9-148.05l-14.27-4.64 14.27-4.62z" fill="#3a414a"/><path d="M675.4-147.36L659-152.7l16.4-5.3zm-13.15-5.33l12.15 3.96v-7.9zM601.53-253.1l1 .23.94.4.86.52.78.67.67.77.54.86.4.94.23 1 .08 1v33.5h-1v-33.47l-.06-.88-.2-.83-.33-.8-.44-.74-.56-.65-.65-.56-.74-.46-.8-.3-.83-.22-.88-.07H193.13l-.88.08-.83.2-.8.33-.74.47-.66.56-.56.65-.45.74-.33.8-.2.83-.07.88v441.22l.06.88.2.84.33.8.45.74.56.66.65.56.73.45.8.33.83.2.9.07h85.62v1H193.1l-1-.07-.98-.24-.95-.4-.87-.53-.77-.66-.66-.77-.54-.88-.4-.94-.23-1-.07-1v-441.3l.07-.98.24-1 .4-.94.53-.87.66-.78.77-.67.87-.53.95-.4 1-.23 1-.1h407.4z" stroke="#3a414a" stroke-width=".05" fill="#3a414a"/><path d="M607-212.4l-.5-.3-.5.3v-.8h1z" fill="#3a414a"/><path d="M607.04-212.36l-.53-.3-.5.3v-.86h1.04zm-1-.8v.72l.47-.28.5.28v-.73z" stroke="#3a414a" stroke-width=".05" fill="#3a414a"/><path d="M293.55 200.57l-14.27 4.64v-9.26z" fill="#3a414a"/><path d="M295.17 200.57l-16.4 5.33v-10.65zm-15.4 3.95l12.16-3.95-12.15-3.94z" stroke="#3a414a" stroke-width=".05" fill="#3a414a"/><use xlink:href="#p" transform="matrix(1,0,0,1,202.51642394496844,-278.0194172834145) translate(0 14.222222222222223)"/><use xlink:href="#q" transform="matrix(1,0,0,1,202.51642394496844,-278.0194172834145) translate(19.75308641975309 14.222222222222223)"/><use xlink:href="#r" transform="matrix(1,0,0,1,202.51642394496844,-278.0194172834145) translate(56.19753086419753 14.222222222222223)"/><use xlink:href="#s" transform="matrix(1,0,0,1,202.51642394496844,-278.0194172834145) translate(97.58024691358025 14.222222222222223)"/><use xlink:href="#t" transform="matrix(1,0,0,1,202.51642394496844,-278.0194172834145) translate(140.93827160493828 14.222222222222223)"/><path d="M1295.3 237.26v3.6l55.5 31.2 49.62-27.96v11.28l-49.6 28.2-52.74-29.88-2.77 1.44v21.72l55.5 31.08 49.62-27.84v11.28l-49.6 28.08-52.74-29.88-2.77 1.56v3.6l55.5 31.2 55.5-31.2v-21.6l-2.77-1.56-52.72 29.88-49.6-28.08v-11.16l49.6 27.84 55.5-31.2V237.5l-2.77-1.44-52.72 29.88-47.06-26.76 47.07-26.52 38.75 21.84 3.44-1.8v-3l-42.2-23.76z" stroke="#000" stroke-opacity="0" fill="#ff3621"/><path d="M1392.9 229.68l10.55 6.32-52.63 29.88-47.04-26.7 47.04-26.46 38.68 21.85 3.4-1.9z" stroke="#000" stroke-opacity="0" fill-opacity="0"/><path d="M1295.3 240.86v14.4l2.85-1.58 52.66 29.9 49.62-28.1v-11.3l-49.6 27.95z" stroke="#000" stroke-opacity="0" fill-opacity="0"/><path d="M1406.34 258.86v14.27l-2.84-1.53-52.66 29.86-49.62-28.1v-11.13l49.62 27.77z" stroke="#000" stroke-opacity="0" fill-opacity="0"/><path d="M1295.3 276.86v14.3l2.85-1.56 52.66 29.86 49.62-28.07v-11.22l-49.6 27.82z" stroke="#000" stroke-opacity="0" fill-opacity="0"/><use xlink:href="#u" transform="matrix(1,0,0,1,1265.3063891313484,334.9408968952681) translate(18.525000000000006 14.4)"/><use xlink:href="#b" transform="matrix(1,0,0,1,1265.3063891313484,334.9408968952681) translate(84.47500000000001 14.4)"/><path d="M1109.33 119.08c-33.12 0-60 26.88-60 60 0 33.12 26.88 60 60 60 33.12 0 60-26.88 60-60 0-33.12-26.88-60-60-60z" stroke="#000" stroke-opacity="0" fill="url(#v)"/><path d="M1158.95 179.08c0 27.4-22.23 49.62-49.62 49.62-27.4 0-49.62-22.23-49.62-49.62 0-27.4 22.24-49.62 49.63-49.62 27.4 0 49.62 22.23 49.62 49.62z" stroke="#000" stroke-opacity="0" fill="#fff"/><path d="M1103.9 179.1c0 3.02-2.45 5.45-5.45 5.45s-5.44-2.44-5.44-5.44c0-3 2.45-5.42 5.45-5.42s5.44 2.43 5.44 5.43z" stroke="#000" stroke-opacity="0" fill="#32bedd"/><path d="M1082.98 163.53h-2.68c-1.14 0-2.05.93-2.05 2.05V206c0 2.3 1.87 4.16 4.14 4.16H1121.77c1.1-.05 2-.98 1.95-2.1v-2.7c0-1.13-.9-2.06-2.04-2.06h-35.26c-.55 0-1-.42-1-.98v-36.74c0-.2 0-.33-.05-.47-.23-1.1-1.33-1.8-2.42-1.57zM1125.73 179.1c0 3.02-2.44 5.45-5.44 5.45-3 0-5.45-2.44-5.45-5.44 0-3 2.44-5.42 5.44-5.42 3 0 5.43 2.43 5.43 5.43z" stroke="#000" stroke-opacity="0" fill="#32bedd"/><path d="M1133.44 148h-36.6-.04c-1.13.04-2.03.98-2 2.1v2.7c0 1.1.92 2.04 2.04 2.04h35.3c.57 0 1.03.47 1.03 1.07v36.6c0 1.13.9 2.06 2.03 2.06h2.7c1.13 0 2.03-.93 2.03-2.05v-40.36c0-2.23-1.8-4.1-4.1-4.14z" stroke="#000" stroke-opacity="0" fill="#32bedd"/><use xlink:href="#w" transform="matrix(1,0,0,1,1019.3337309930039,248.07835591655885) translate(30.124999999999993 14.4)"/><use xlink:href="#x" transform="matrix(1,0,0,1,1019.3337309930039,248.07835591655885) translate(84.025 14.4)"/><path d="M579.25 162.97h-164.6l-.9.07-.83.2-.8.33-.74.45-.65.56-.56.66-.45.73-.33.8-.2.84-.08.9v26.1l-.08 1-.24.98-.4.94-.52.88-.67.77-.76.66-.87.54-.94.4-1 .22-1 .07h-7.96v-1h7.93l.88-.07.84-.2.8-.33.73-.45.65-.56.56-.66.46-.73.33-.8.2-.84.07-.88v-26.1l.07-1 .23-1 .4-.93.53-.87.66-.78.78-.66.87-.53.94-.4 1-.22 1-.08h164.65zm456.1 0H702.5v-1h332.84z" stroke="#3a414a" stroke-width=".05" fill="#3a414a"/><path d="M394.68 201.07h-.5v-1h.5z" fill="#3a414a"/><path d="M394.7 201.1h-.56v-1.05h.57zm-.5-1v.95h.46v-.95z" stroke="#3a414a" stroke-width=".05" fill="#3a414a"/><path d="M1050.1 162.47l-14.26 4.63v-9.27z" fill="#3a414a"/><path d="M1051.72 162.47l-16.38 5.32v-10.66zm-15.38 3.94l12.14-3.93-12.14-3.95z" stroke="#3a414a" stroke-width=".05" fill="#3a414a"/><use xlink:href="#y" transform="matrix(1,0,0,1,579.2513265233798,151.8007318256373) translate(0 14.222222222222223)"/><use xlink:href="#z" transform="matrix(1,0,0,1,579.2513265233798,151.8007318256373) translate(19.75308641975309 14.222222222222223)"/><use xlink:href="#t" transform="matrix(1,0,0,1,579.2513265233798,151.8007318256373) translate(71.01234567901236 14.222222222222223)"/><path d="M1116.24 334.1h-51.6c-2.23 0-4.1 1.77-4.1 4.02v110.16c0 2.24 1.87 4.02 4.1 4.02h89.43c2.24 0 4-1.78 4-4.02v-72.93c0-2.25-1.76-4.02-4-4.02h-29.74c-2.24 0-4-1.77-4-4.02v-29.18-.12c0-2.13-1.85-3.9-4.1-3.9z" stroke="#000" stroke-opacity="0" fill="#fff"/><path d="M1114.38 339.2v27.72c0 5.64 4.56 10.08 10.2 10.2h28.12v70.08h-86.73v-108h48.4m1.9-6h-52.28c-2.3 0-4.17 1.8-4.17 4.08v111.84c0 2.28 1.88 4.08 4.16 4.08h90.68c2.27 0 4.15-1.8 4.15-4.08v-74.04c0-2.28-1.88-4.08-4.15-4.08h-30.1c-2.28 0-4.16-1.8-4.16-4.08v-29.64c0-2.28-1.78-4.08-4.16-4.08z" stroke="#000" stroke-opacity="0" fill="url(#A)"/><path d="M1157.25 371.78l-38.2-37.68v30.7c-.05 3.85 3.08 6.94 6.94 6.98z" stroke="#000" stroke-opacity="0" fill="#0078d4"/><path d="M1079.7 387.8h59.25c2.7 0 4.04 1.34 4.04 4.03v.9c0 2.67-1.35 4-4.05 4h-59.24c-2.68 0-4.03-1.33-4.03-4v-.9c0-2.7 1.35-4.03 4.04-4.03zM1079.7 403.88h59.25c2.7 0 4.04 1.35 4.04 4.03v.9c0 2.68-1.35 4.02-4.05 4.02h-59.24c-2.68 0-4.03-1.34-4.03-4.02v-.9c0-2.67 1.35-4.02 4.04-4.02zM1079.75 419.84h34.32c2.72 0 4.08 1.35 4.08 4.03v.9c0 2.67-1.36 4-4.08 4h-34.32c-2.72 0-4.08-1.33-4.08-4v-.9c0-2.7 1.36-4.03 4.08-4.03z" stroke="#000" stroke-opacity="0" fill="#5ea0ef"/><use xlink:href="#B" transform="matrix(1,0,0,1,1029.8337309930039,462.2042314972541) translate(41.7 14.4)"/><path d="M789.37 90.94l1 .23.93.4.88.53.77.66.66.78.55.86.4.95.23 1 .07 1v997.4l.07.87.2.84.33.8.45.73.57.65.65.56.74.46.8.33.83.2.87.06h467.13l.88-.07.84-.2.8-.34.73-.45.66-.55.57-.66.45-.75.33-.8.2-.83.07-.88V905.38l-.07-.88-.2-.84-.33-.8-.45-.74-.56-.65-.65-.56-.73-.44-.8-.33-.84-.2-.88-.07h-130.66l-.88.07-.84.2-.8.33-.73.45-.67.57-.56.65-.45.74-.33.8-.2.84-.08.88v17.6h-1v-17.64l.08-1 .24-1 .4-.94.52-.86.66-.78.78-.66.87-.54.94-.4 1-.22 1-.08h130.74l1 .08 1 .23.93.4.87.53.78.66.66.78.53.87.4.95.24 1 .08 1v189.43l-.08 1-.24 1-.4.93-.52.88-.66.78-.78.66-.87.53-.94.4-1 .23-1 .08h-467.2l-1-.08-1-.24-.93-.4-.87-.52-.77-.66-.67-.78-.54-.87-.4-.93-.23-1-.08-1V97.38l-.07-.87-.2-.84-.33-.8-.45-.73-.56-.66-.65-.56-.75-.44-.8-.33-.84-.2-.87-.07h-373.7l-.87.07-.84.2-.8.33-.74.45-.65.57-.56.66-.45.73-.33.8-.2.84-.08.88v97.2l-.08 1-.24 1-.4.94-.52.88-.67.77-.76.66-.87.54-.94.4-1 .22-1 .07h-7.96v-1h7.93l.88-.07.84-.2.8-.33.73-.45.65-.56.56-.66.46-.73.33-.8.2-.84.07-.88v-97.2l.07-1 .23-1 .4-.94.53-.86.66-.78.78-.66.87-.54.94-.4 1-.22 1-.08h373.77z" stroke="#3a414a" stroke-width=".05" fill="#3a414a"/><path d="M394.68 201.07h-.5v-1h.5z" fill="#3a414a"/><path d="M394.7 201.1h-.56v-1.05h.57zm-.5-1v.95h.46v-.95z" stroke="#3a414a" stroke-width=".05" fill="#3a414a"/><path d="M1130.82 937.74l-4.64-14.27h9.27z" fill="#3a414a"/><path d="M1130.82 939.36l-5.33-16.4h10.64zm-3.95-15.4l3.95 12.16 3.95-12.15z" stroke="#3a414a" stroke-width=".05" fill="#3a414a"/><use xlink:href="#C" transform="matrix(1,0,0,1,570.551041141701,915.5078777999995) translate(0 14.222222222222223)"/><use xlink:href="#D" transform="matrix(1,0,0,1,570.551041141701,915.5078777999995) translate(19.75308641975309 14.222222222222223)"/><use xlink:href="#E" transform="matrix(1,0,0,1,570.551041141701,915.5078777999995) translate(80.83950617283952 14.222222222222223)"/><use xlink:href="#F" transform="matrix(1,0,0,1,570.551041141701,915.5078777999995) translate(148.79012345679016 14.222222222222223)"/><path d="M694.03-153.1l1 .23.94.4.86.52.78.67.67.77.54.86.4.94.23 1 .08 1V17.95l-.07 1-.23 1-.4.93-.53.87-.66.77-.77.66-.87.54-.94.4-1 .22-1 .08h-674l-.9.07-.83.2-.8.34-.74.46-.66.56-.56.65-.45.75-.34.8-.2.83-.07.88v164.6l.06.87.2.84.33.8.44.74.56.66.66.56.73.45.8.33.83.2.88.07h17.6v1H18.97l-1-.07-1-.24-.93-.4-.87-.53-.78-.66-.67-.77-.53-.88-.4-.94-.23-1-.08-1V29.93l.07-1 .24-1 .4-.93.53-.88.66-.77.77-.67.87-.53.94-.4 1-.23 1-.08h674l.9-.07.83-.2.8-.33.75-.45.65-.57.56-.65.45-.74.34-.8.2-.84.07-.88v-164.6l-.06-.87-.2-.83-.33-.8-.44-.74-.56-.65-.65-.56-.74-.46-.8-.3-.83-.22-.88-.07h-33.5v-1h33.53z" stroke="#3a414a" stroke-width=".05" fill="#3a414a"/><path d="M659.53-152.2H659v-1h.53z" fill="#3a414a"/><path d="M659.55-152.16H659v-1.05h.55zm-.5-1v.95h.45v-.96z" stroke="#3a414a" stroke-width=".05" fill="#3a414a"/><path d="M51.37 200.57L37.1 205.2v-9.26z" fill="#3a414a"/><path d="M53 200.57l-16.4 5.33v-10.65zm-15.4 3.95l12.15-3.95-12.15-3.94z" stroke="#3a414a" stroke-width=".05" fill="#3a414a"/><use xlink:href="#G" transform="matrix(1,0,0,1,293.6905410227914,-22.723044722975587) translate(0 14.222222222222223)"/><use xlink:href="#H" transform="matrix(1,0,0,1,293.6905410227914,-22.723044722975587) translate(17.77777777777778 14.222222222222223)"/><use xlink:href="#I" transform="matrix(1,0,0,1,293.6905410227914,-22.723044722975587) translate(118.37037037037038 14.222222222222223)"/><use xlink:href="#J" transform="matrix(1,0,0,1,293.6905410227914,-22.723044722975587) translate(17.77777777777778 35.55555555555556)"/><path d="M931.1 985.63l.08.88.2.85.33.8.46.73.56.65.66.57.73.45.8.33.85.2.88.07h133.7v1H936.58l-1-.08-1-.24-.94-.4-.87-.52-.8-.66-.65-.77-.53-.87-.4-.94-.23-1-.1-1v-183.8h1zm112.35-591.93H936.63l-.88.07-.84.2-.8.33-.72.46-.66.56-.56.65-.45.74-.32.8-.2.84-.07.88v381.3h-1V399.2l.1-1 .22-1 .4-.95.53-.87.66-.77.8-.66.86-.53.94-.38 1-.24 1-.08h106.85z" stroke="#3a414a" stroke-width=".05" fill="#3a414a"/><path d="M1070.82 992.15h-.5v-1h.5z" fill="#3a414a"/><path d="M1070.84 992.17h-.56v-1.05h.56zm-.5-1v.95h.45v-.95z" stroke="#3a414a" stroke-width=".05" fill="#3a414a"/><path d="M1058.22 393.2l-14.27 4.64v-9.27z" fill="#3a414a"/><path d="M1059.83 393.2l-16.38 5.33v-10.65zm-15.38 3.95l12.15-3.95-12.15-3.94z" stroke="#3a414a" stroke-width=".05" fill="#3a414a"/><use xlink:href="#K" transform="matrix(1,0,0,1,825.6457496690831,780.5341124576894) translate(0 14.222222222222223)"/><use xlink:href="#D" transform="matrix(1,0,0,1,825.6457496690831,780.5341124576894) translate(19.75308641975309 14.222222222222223)"/><use xlink:href="#L" transform="matrix(1,0,0,1,825.6457496690831,780.5341124576894) translate(80.83950617283952 14.222222222222223)"/><use xlink:href="#F" transform="matrix(1,0,0,1,825.6457496690831,780.5341124576894) translate(142.9135802469136 14.222222222222223)"/><path d="M1109.83 332.7h-1v-15.17h1zm0-36.5h-1v-40.74h1z" stroke="#3a414a" stroke-width=".05" fill="#3a414a"/><path d="M1109.83 333.2h-1v-.5h1z" fill="#3a414a"/><path d="M1109.86 333.23h-1.05v-.56h1.06zm-1-.5v.45h.95v-.46z" stroke="#3a414a" stroke-width=".05" fill="#3a414a"/><path d="M1113.97 254.96h-9.27l4.63-14.26z" fill="#3a414a"/><path d="M1114.66 255.46H1104l5.33-16.38zm-9.27-1h7.88l-3.95-12.15z" stroke="#3a414a" stroke-width=".05" fill="#3a414a"/><use xlink:href="#M" transform="matrix(1,0,0,1,1038.7905211164607,296.1960767754544) translate(0 14.222222222222223)"/><use xlink:href="#N" transform="matrix(1,0,0,1,1038.7905211164607,296.1960767754544) translate(19.75308641975309 14.222222222222223)"/><use xlink:href="#t" transform="matrix(1,0,0,1,1038.7905211164607,296.1960767754544) translate(88.83950617283952 14.222222222222223)"/><path d="M1486.77 265.52l1 .24.94.4.88.52.77.66.67.78.53.87.4.93.23 1 .08 1v314.6l-.08 1-.24 1-.4.94-.52.87-.67.78-.77.66-.87.54-.94.38-1 .24-1 .08h-440.95l-.98-.08-1-.24-.94-.38-.87-.54-.76-.66-.67-.78-.53-.87-.4-.94-.23-1-.07-1V399.2l.08-1 .25-1 .4-.95.52-.87.67-.77.77-.66.88-.53.94-.38 1-.24 1-.08h14.5v1h-14.47l-.88.07-.84.2-.8.33-.73.46-.65.56-.57.65-.45.74-.33.8-.2.84-.07.88V586.5l.07.88.2.84.34.8.44.73.57.66.65.57.74.45.8.33.83.2.88.07h440.9l.87-.07.83-.2.8-.33.74-.45.64-.56.56-.65.45-.73.33-.8.2-.84.08-.88V271.96l-.07-.88-.22-.84-.33-.8-.45-.73-.56-.65-.65-.56-.75-.46-.8-.33-.84-.2-.87-.06h-63v-1h63.04z" stroke="#3a414a" stroke-width=".05" fill="#3a414a"/><path d="M1059.83 393.7h-.5v-1h.5z" fill="#3a414a"/><path d="M1059.86 393.73h-.56v-1.05h.56zm-.5-1v.95h.45v-.95z" stroke="#3a414a" stroke-width=".05" fill="#3a414a"/><path d="M1422.22 270.58l-14.26-4.64 14.26-4.63z" fill="#3a414a"/><path d="M1422.72 271.26l-16.38-5.32 16.38-5.32zm-13.14-5.32l12.14 3.95V262z" stroke="#3a414a" stroke-width=".05" fill="#3a414a"/><use xlink:href="#O" transform="matrix(1,0,0,1,1115.9173628066108,567.1885915680864) translate(0 14.222222222222223)"/><use xlink:href="#P" transform="matrix(1,0,0,1,1115.9173628066108,567.1885915680864) translate(19.75308641975309 14.222222222222223)"/><path d="M1031.32 985.63l.07.88.2.85.32.8.45.73.56.65.66.57.72.45.8.33.84.2.88.07h17.6v1h-17.64l-1-.08-1-.24-.93-.4-.87-.52-.78-.66-.66-.77-.53-.87-.4-.94-.23-1-.08-1v-183.8h1zm960.84-214.5h-955.32l-.88.08-.84.2-.8.34-.73.45-.67.55-.56.66-.45.75-.33.8-.2.83-.08.88v3.87h-1v-3.9l.08-1 .24-1 .4-.94.52-.88.66-.78.78-.66.87-.53.94-.4 1-.23 1-.08h955.36zm-402.03-505.6l1 .23.94.4.87.52.77.66.67.78.54.87.4.93.24 1 .08 1v176.7l.06.88.2.84.34.8.45.74.56.65.65.56.74.44.8.33.84.2.87.07h548.6l1 .08.98.24.95.4.87.52.78.67.66.77.53.87.4.94.22 1 .08 1v299.34h-1V460.66l-.07-.88-.2-.83-.33-.8-.45-.74-.56-.64-.67-.56-.73-.45-.8-.33-.84-.2-.88-.08H1601.1l-1-.07-1-.24-.94-.4-.87-.53-.78-.66-.66-.77-.54-.87-.4-.95-.23-1-.1-1 .02-176.7-.07-.87-.2-.84-.34-.8-.44-.73-.56-.65-.65-.56-.74-.46-.8-.33-.83-.2-.88-.06h-182.26v-1h182.3z" stroke="#3a414a" stroke-width=".05" fill="#3a414a"/><path d="M1406.85 266.44h-.5v-1h.5z" fill="#3a414a"/><path d="M1406.88 266.47h-.57l.02-1.05h.56zm-.52-1v.95h.47v-.95z" stroke="#3a414a" stroke-width=".05" fill="#3a414a"/><path d="M1069.2 991.65l-14.27 4.63V987z" fill="#3a414a"/><path d="M1070.82 991.65l-16.38 5.32v-10.65zm-15.38 3.94l12.14-3.95-12.14-3.95z" stroke="#3a414a" stroke-width=".05" fill="#3a414a"/><use xlink:href="#Q" transform="matrix(1,0,0,1,1992.1588495248966,759.9749922778072) translate(0 14.222222222222223)"/><use xlink:href="#R" transform="matrix(1,0,0,1,1992.1588495248966,759.9749922778072) translate(19.75308641975309 14.222222222222223)"/><use xlink:href="#S" transform="matrix(1,0,0,1,1992.1588495248966,759.9749922778072) translate(85.82716049382717 14.222222222222223)"/><use xlink:href="#T" transform="matrix(1,0,0,1,1992.1588495248966,759.9749922778072) translate(169.62962962962965 14.222222222222223)"/><path d="M2014.45 238.9h-51.6c-2.23 0-4.08 1.77-4.08 4V353.1c0 2.24 1.85 4.02 4.1 4.02h89.4c2.26 0 4-1.78 4-4.02v-72.93c0-2.25-1.74-4.02-4-4.02h-29.73c-2.24 0-4-1.77-4-4.02v-29.2-.1c0-2.13-1.85-3.9-4.1-3.9z" stroke="#000" stroke-opacity="0" fill="#fff"/><path d="M2012.6 244v27.72c0 5.64 4.55 10.08 10.2 10.2h28.1V352h-86.72V244h48.42m1.88-6h-52.28c-2.27 0-4.15 1.8-4.15 4.08v111.84c0 2.28 1.88 4.08 4.15 4.08h90.7c2.27 0 4.15-1.8 4.15-4.08v-74.04c0-2.28-1.88-4.08-4.16-4.08h-30.1c-2.28 0-4.16-1.8-4.16-4.08v-29.64c0-2.28-1.8-4.08-4.16-4.08z" stroke="#000" stroke-opacity="0" fill="url(#U)"/><path d="M2055.46 276.57l-38.2-37.67v30.7c-.05 3.85 3.08 6.94 6.94 6.97z" stroke="#000" stroke-opacity="0" fill="#0078d4"/><path d="M1977.93 292.6h59.24c2.7 0 4.04 1.34 4.04 4.02v.9c0 2.68-1.34 4.02-4.03 4.02h-59.24c-2.7 0-4.04-1.34-4.04-4.02v-.9c0-2.68 1.33-4.02 4.03-4.02zM1977.93 308.68h59.24c2.7 0 4.04 1.34 4.04 4.02v.9c0 2.68-1.34 4.02-4.03 4.02h-59.24c-2.7 0-4.04-1.34-4.04-4.02v-.9c0-2.68 1.33-4.02 4.03-4.02zM1977.96 324.64h34.32c2.72 0 4.08 1.34 4.08 4.03v.9c0 2.67-1.36 4-4.08 4h-34.32c-2.7 0-4.07-1.33-4.07-4v-.9c0-2.7 1.35-4.03 4.06-4.03z" stroke="#000" stroke-opacity="0" fill="#5ea0ef"/><use xlink:href="#V" transform="matrix(1,0,0,1,1928.0467019982475,367.00212640438633) translate(41.025 14.4)"/><a xlink:href="http://testing.py" target="_blank" transform="matrix(1,0,0,1,1928.0467019982475,367.00212640438633)"><path class="lucid-link lucid-hotspot lucid-overlay-hotspot" fill-opacity="0" d="M41.02 0h76.95v21.6H41.02z"/></a><path d="M1744.5 178.66l1 .24.95.38.87.54.77.66.66.78.53.87.38.94.24 1 .08 1v106.9l.07.9.2.83.33.8.45.73.56.66.66.55.74.45.8.33.84.2.88.07h186.14v1h-186.18l-1-.08-1-.24-.93-.38-.88-.54-.77-.66-.66-.78-.54-.87-.4-.94-.22-.98-.08-1V185.1l-.07-.88-.2-.84-.34-.8-.46-.73-.56-.66-.65-.57-.74-.45-.8-.33-.84-.2-.88-.07h-573.65v-1h573.7z" stroke="#3a414a" stroke-width=".05" fill="#3a414a"/><path d="M1169.85 179.58h-.53v-1h.53z" fill="#3a414a"/><path d="M1169.87 179.6h-.58v-1.05h.57zm-.53-1l.02.48-.02.47h.48v-.95z" stroke="#3a414a" stroke-width=".05" fill="#3a414a"/><path d="M1956.43 298l-14.27 4.64v-9.27z" fill="#3a414a"/><path d="M1958.05 298l-16.4 5.33v-10.65zm-15.4 3.95l12.16-3.95-12.14-3.94z" stroke="#3a414a" stroke-width=".05" fill="#3a414a"/><use xlink:href="#W" transform="matrix(1,0,0,1,1693.4360185941932,156.08429726726067) translate(0 14.222222222222223)"/><use xlink:href="#N" transform="matrix(1,0,0,1,1693.4360185941932,156.08429726726067) translate(29.629629629629633 14.222222222222223)"/><use xlink:href="#X" transform="matrix(1,0,0,1,1693.4360185941932,156.08429726726067) translate(98.71604938271606 14.222222222222223)"/><use xlink:href="#t" transform="matrix(1,0,0,1,1693.4360185941932,156.08429726726067) translate(140.0987654320988 14.222222222222223)"/><path d="M2057.55 303.34h220.25" stroke="#3a414a" fill="none"/><path d="M2057.56 303.84h-.5v-1h.5z" stroke="#3a414a" stroke-width=".05" fill="#3a414a"/><path d="M2292.57 303.34l-14.27 4.63v-9.27z" stroke="#3a414a" fill="#3a414a"/><use xlink:href="#Y" transform="matrix(1,0,0,1,2077.9881665295215,278.00262335889073) translate(0 14.222222222222223)"/><use xlink:href="#Z" transform="matrix(1,0,0,1,2077.9881665295215,278.00262335889073) translate(28.641975308641978 14.222222222222223)"/><use xlink:href="#aa" transform="matrix(1,0,0,1,2077.9881665295215,278.00262335889073) translate(65.08641975308643 14.222222222222223)"/><use xlink:href="#ab" transform="matrix(1,0,0,1,2077.9881665295215,278.00262335889073) translate(132.0987654320988 14.222222222222223)"/><path d="M2008.05 642.7l-.08 1-.24 1-.4.93-.52.87-.66.78-.77.66-.87.53-.94.4-1 .23-1 .08h-864.72l-.88.07-.84.2-.8.33-.73.45-.67.56-.56.65-.45.73-.33.8-.2.84-.08.88v284.16h-1v-284.2l.08-1 .24-1 .4-.93.52-.87.66-.78.78-.66.87-.53.94-.4 1-.24 1-.08h864.73l.88-.07.85-.2.8-.32.73-.45.65-.56.56-.66.45-.72.33-.8.2-.84.07-.88V374.4h1z" stroke="#3a414a" stroke-width=".05" fill="#3a414a"/><path d="M1130.32 940.12v-1.28h.83z" fill="#3a414a"/><path d="M1130.3 940.2v-1.38h.9zm.04-1.33v1.17l.77-1.17z" stroke="#3a414a" stroke-width=".05" fill="#3a414a"/><path d="M2012.18 373.9h-9.27l4.65-14.28z" fill="#3a414a"/><path d="M2012.87 374.4h-10.65l5.33-16.4zm-9.27-1h7.9l-3.95-12.16z" stroke="#3a414a" stroke-width=".05" fill="#3a414a"/><use xlink:href="#ac" transform="matrix(1,0,0,1,1467.6420708447151,623.3462501452155) translate(0 14.222222222222223)"/><use xlink:href="#ad" transform="matrix(1,0,0,1,1467.6420708447151,623.3462501452155) translate(19.75308641975309 14.222222222222223)"/><use xlink:href="#T" transform="matrix(1,0,0,1,1467.6420708447151,623.3462501452155) translate(113.43209876543213 14.222222222222223)"/><path d="M1395.02 893.38l-.08 1-.24 1-.4.93-.52.88-.66.77-.78.67-.87.53-.94.4-1 .23-1 .08h-251.7l-.87.07-.84.2-.8.33-.73.45-.67.57-.56.65-.45.74-.33.8-.2.84-.08.88v33.48h-1v-33.52l.08-1 .24-1 .4-.94.52-.86.66-.78.78-.66.87-.54.94-.4 1-.22 1-.08h251.7l.88-.07.84-.2.8-.34.73-.46.66-.55.57-.66.45-.75.33-.8.2-.83.07-.88V770.02h1zm-190.67-714.72l1 .24.94.38.86.54.77.66.66.78.53.87.4.94.23 1 .07 1v563.62h-1V185.1l-.07-.88-.2-.84-.33-.8-.45-.73-.56-.66-.65-.57-.74-.45-.8-.33-.84-.2-.9-.07h-17.58v-1h17.63z" stroke="#3a414a" stroke-width=".05" fill="#3a414a"/><path d="M1130.32 940.12v-1.28h.83z" fill="#3a414a"/><path d="M1130.3 940.2v-1.38h.9zm.04-1.33v1.17l.77-1.17z" stroke="#3a414a" stroke-width=".05" fill="#3a414a"/><path d="M1185.22 183.7l-14.27-4.62 14.27-4.64z" fill="#3a414a"/><path d="M1185.72 184.4l-16.4-5.32 16.4-5.33zm-13.15-5.32l12.15 3.94v-7.9z" stroke="#3a414a" stroke-width=".05" fill="#3a414a"/><g><use xlink:href="#ae" transform="matrix(1,0,0,1,1176.8772595602347,748.6867138428191) translate(0 14.222222222222223)"/><use xlink:href="#af" transform="matrix(1,0,0,1,1176.8772595602347,748.6867138428191) translate(29.629629629629633 14.222222222222223)"/><use xlink:href="#ag" transform="matrix(1,0,0,1,1176.8772595602347,748.6867138428191) translate(105.48148148148148 14.222222222222223)"/><use xlink:href="#ah" transform="matrix(1,0,0,1,1176.8772595602347,748.6867138428191) translate(127.11111111111111 14.222222222222223)"/></g><path d="M787.56-203.7h128v44.7h-128v-44.7z" stroke="#000" stroke-opacity="0" fill="#aecbfa"/><path d="M902.76-203.7h12.8v44.7h-12.8v-44.7z" stroke="#000" stroke-opacity="0" fill="#669df6"/><path d="M915.56-203.7h-12.8v44.7l12.8-44.7z" stroke="#000" stroke-opacity="0" fill="#4285f4"/><path d="M787.56-203.7h12.8v44.7h-12.8v-44.7z" stroke="#000" stroke-opacity="0" fill="#669df6"/><path d="M813.16-184.5h38.4v6.37h-38.4v-6.38zM880.36-190.94c6.4 0 9.6 3.2 9.6 9.6 0 6.38-3.2 9.58-9.6 9.58-6.4 0-9.6-3.2-9.6-9.6 0-6.37 3.2-9.58 9.6-9.58z" stroke="#000" stroke-opacity="0" fill="#fff"/><path d="M787.56-146.26h128v44.68h-128v-44.68z" stroke="#000" stroke-opacity="0" fill="#aecbfa"/><path d="M902.76-146.26h12.8v44.68h-12.8v-44.68z" stroke="#000" stroke-opacity="0" fill="#669df6"/><path d="M915.56-146.26h-12.8v44.68l12.8-44.68z" stroke="#000" stroke-opacity="0" fill="#4285f4"/><path d="M787.56-146.26h12.8v44.68h-12.8v-44.68z" stroke="#000" stroke-opacity="0" fill="#669df6"/><path d="M813.16-127.2h38.4v6.4h-38.4v-6.4zM880.36-133.5c6.4 0 9.6 3.2 9.6 9.58s-3.2 9.6-9.6 9.6c-6.4 0-9.6-3.22-9.6-9.6 0-6.4 3.2-9.6 9.6-9.6z" stroke="#000" stroke-opacity="0" fill="#fff"/><path d="M788.84-202.67v99.96h125.44v-99.97z" stroke="#000" stroke-opacity="0" fill-opacity="0"/><g><use xlink:href="#ai" transform="matrix(1,0,0,1,787.5640627887931,-96.68608395008113) translate(35.04938271604939 17.77777777777778)"/><use xlink:href="#aj" transform="matrix(1,0,0,1,787.5640627887931,-96.68608395008113) translate(25.141975308641975 44.44444444444444)"/></g><path d="M1109.33 118.58v-273.2a6 6 0 0 0-6-6H964.6" stroke="#3a414a" fill="none"/><path d="M1109.83 119.1l-.5-.02-.5.02v-.53h1z" stroke="#3a414a" stroke-width=".05" fill="#3a414a"/><path d="M949.83-160.6l14.26-4.65v9.27z" stroke="#3a414a" fill="#3a414a"/><path d="M1647.4-70.4h-283.27l-.88.07-.84.2-.8.33-.72.45-.66.56-.56.66-.45.74-.32.8-.2.83-.07.88v293.53l-.07 1-.24 1-.4.94-.53.87-.66.77-.77.67-.87.54-.94.4-1 .23-1 .08h-136.8l-1-.06-1-.24-.94-.4-.87-.53-.76-.66-.67-.76-.53-.88-.4-.94-.23-1-.07-1V185.1l-.07-.88-.2-.84-.33-.8-.45-.73-.56-.66-.65-.57-.74-.45-.8-.33-.84-.2-.9-.07h-33.47v-1h33.52l1 .08 1 .24.94.38.86.54.77.66.66.78.53.87.4.94.23 1 .07 1v43.52l.07.87.2.84.34.8.44.75.57.65.65.56.74.45.8.34.83.2.88.07h136.74l.87-.06.84-.2.8-.33.74-.44.66-.56.56-.66.45-.73.34-.8.2-.83.07-.88V-64.93l.1-1 .22-1 .4-.94.53-.87.66-.77.8-.66.86-.54.94-.4 1-.23 1-.08h283.3zm697.3-.93l1 .24.94.4.87.54.8.66.65.77.53.87.4.95.23.98.1 1v291.87h-1V-64.88l-.08-.9-.2-.82-.33-.8-.46-.74-.56-.65-.66-.55-.74-.45-.8-.33-.83-.2-.88-.08H1824.8v-1h518.9z" stroke="#3a414a" stroke-width=".05" fill="#3a414a"/><path d="M1169.85 179.58h-.53v-1h.53z" fill="#3a414a"/><path d="M1169.87 179.6h-.58v-1.05h.57zm-.53-1l.02.48-.02.47h.48v-.95z" stroke="#3a414a" stroke-width=".05" fill="#3a414a"/><path d="M2349.7 241.72l-4.65-14.27h9.27z" fill="#3a414a"/><path d="M2349.7 243.34l-5.34-16.4H2355zm-3.96-15.4l3.95 12.16 3.94-12.15z" stroke="#3a414a" stroke-width=".05" fill="#3a414a"/><g><use xlink:href="#ak" transform="matrix(1,0,0,1,1647.414025107588,-81.57128283808466) translate(0 14.222222222222223)"/><use xlink:href="#al" transform="matrix(1,0,0,1,1647.414025107588,-81.57128283808466) translate(62.07407407407408 14.222222222222223)"/><use xlink:href="#am" transform="matrix(1,0,0,1,1647.414025107588,-81.57128283808466) translate(88.64197530864199 14.222222222222223)"/></g><path d="M2178.35 96.68h-51.58c-2.24 0-4.1 1.78-4.1 4.02v110.16c0 2.25 1.86 4.02 4.1 4.02h89.42c2.23 0 4-1.77 4-4.02v-72.93c0-2.24-1.77-4-4-4h-29.75c-2.25 0-4-1.8-4-4.03v-29.2-.12c0-2.12-1.85-3.9-4.1-3.9z" stroke="#000" stroke-opacity="0" fill="#fff"/><path d="M2176.5 101.8v27.7c0 5.65 4.55 10.1 10.2 10.2h28.1v70.1h-86.7v-108h48.4m1.88-6h-52.27c-2.27 0-4.15 1.8-4.15 4.07V211.7c0 2.3 1.88 4.1 4.16 4.1h90.7c2.27 0 4.15-1.8 4.15-4.1v-74.03c0-2.28-1.88-4.08-4.16-4.08h-30.1c-2.28 0-4.16-1.8-4.16-4.1V99.88c0-2.28-1.78-4.08-4.16-4.08z" stroke="#000" stroke-opacity="0" fill="url(#an)"/><path d="M2219.37 134.36l-38.22-37.68v30.7c-.04 3.86 3.1 6.94 6.96 6.98z" stroke="#000" stroke-opacity="0" fill="#0078d4"/><path d="M2141.83 150.4h59.24c2.7 0 4.04 1.33 4.04 4v.9c0 2.7-1.34 4.03-4.03 4.03h-59.24c-2.7 0-4.04-1.34-4.04-4.02v-.9c0-2.67 1.34-4 4.03-4zM2141.83 166.47h59.24c2.7 0 4.04 1.34 4.04 4.02v.9c0 2.67-1.34 4-4.03 4h-59.24c-2.7 0-4.04-1.33-4.04-4v-.9c0-2.7 1.34-4.03 4.03-4.03zM2141.87 182.43h34.32c2.7 0 4.06 1.34 4.06 4.02v.9c0 2.68-1.36 4.02-4.08 4.02h-34.3c-2.73 0-4.1-1.34-4.1-4.02v-.9c0-2.68 1.37-4.02 4.1-4.02z" stroke="#000" stroke-opacity="0" fill="#5ea0ef"/><g><use xlink:href="#ao" transform="matrix(1,0,0,1,2091.9513289705865,224.79022098760504) translate(40.55 14.4)"/></g><defs><path d="M30-248c118-7 216 8 213 122C240-48 200 0 122 0H30v-248zM63-27c89 8 146-16 146-99s-60-101-146-95v194" id="ap"/><path d="M100-194c63 0 86 42 84 106H49c0 40 14 67 53 68 26 1 43-12 49-29l28 8c-11 28-37 45-77 45C44 4 14-33 15-96c1-61 26-98 85-98zm52 81c6-60-76-77-97-28-3 7-6 17-6 28h103" id="aq"/><path d="M108 0H70L1-190h34L89-25l56-165h34" id="ar"/><g id="a"><use transform="matrix(0.05,0,0,0.05,0,0)" xlink:href="#ap"/><use transform="matrix(0.05,0,0,0.05,12.950000000000001,0)" xlink:href="#aq"/><use transform="matrix(0.05,0,0,0.05,22.950000000000003,0)" xlink:href="#ar"/></g><path d="M33 0v-248h34V0H33" id="as"/><path d="M117-194c89-4 53 116 60 194h-32v-121c0-31-8-49-39-48C34-167 62-67 57 0H25l-1-190h30c1 10-1 24 2 32 11-22 29-35 61-36" id="at"/><path d="M135-143c-3-34-86-38-87 0 15 53 115 12 119 90S17 21 10-45l28-5c4 36 97 45 98 0-10-56-113-15-118-90-4-57 82-63 122-42 12 7 21 19 24 35" id="au"/><path d="M59-47c-2 24 18 29 38 22v24C64 9 27 4 27-40v-127H5v-23h24l9-43h21v43h35v23H59v120" id="av"/><path d="M141-36C126-15 110 5 73 4 37 3 15-17 15-53c-1-64 63-63 125-63 3-35-9-54-41-54-24 1-41 7-42 31l-33-3c5-37 33-52 76-52 45 0 72 20 72 64v82c-1 20 7 32 28 27v20c-31 9-61-2-59-35zM48-53c0 20 12 33 32 33 41-3 63-29 60-74-43 2-92-5-92 41" id="aw"/><path d="M96-169c-40 0-48 33-48 73s9 75 48 75c24 0 41-14 43-38l32 2c-6 37-31 61-74 61-59 0-76-41-82-99-10-93 101-131 147-64 4 7 5 14 7 22l-32 3c-4-21-16-35-41-35" id="ax"/><g id="b"><use transform="matrix(0.05,0,0,0.05,0,0)" xlink:href="#as"/><use transform="matrix(0.05,0,0,0.05,5,0)" xlink:href="#at"/><use transform="matrix(0.05,0,0,0.05,15,0)" xlink:href="#au"/><use transform="matrix(0.05,0,0,0.05,24,0)" xlink:href="#av"/><use transform="matrix(0.05,0,0,0.05,29,0)" xlink:href="#aw"/><use transform="matrix(0.05,0,0,0.05,39,0)" xlink:href="#at"/><use transform="matrix(0.05,0,0,0.05,49,0)" xlink:href="#ax"/><use transform="matrix(0.05,0,0,0.05,58,0)" xlink:href="#aq"/></g><path d="M205 0l-28-72H64L36 0H1l101-248h38L239 0h-34zm-38-99l-47-123c-12 45-31 82-46 123h93" id="ay"/><path d="M9 0v-24l116-142H16v-24h144v24L44-24h123V0H9" id="az"/><path d="M84 4C-5 8 30-112 23-190h32v120c0 31 7 50 39 49 72-2 45-101 50-169h31l1 190h-30c-1-10 1-25-2-33-11 22-28 36-60 37" id="aA"/><path d="M114-163C36-179 61-72 57 0H25l-1-190h30c1 12-1 29 2 39 6-27 23-49 58-41v29" id="aB"/><g id="c"><use transform="matrix(0.05,0,0,0.05,0,0)" xlink:href="#ay"/><use transform="matrix(0.05,0,0,0.05,12,0)" xlink:href="#az"/><use transform="matrix(0.05,0,0,0.05,21,0)" xlink:href="#aA"/><use transform="matrix(0.05,0,0,0.05,31,0)" xlink:href="#aB"/><use transform="matrix(0.05,0,0,0.05,36.95,0)" xlink:href="#aq"/></g><path d="M233-177c-1 41-23 64-60 70L243 0h-38l-65-103H63V0H30v-248c88 3 205-21 203 71zM63-129c60-2 137 13 137-47 0-61-80-42-137-45v92" id="aC"/><path d="M115-194c55 1 70 41 70 98S169 2 115 4C84 4 66-9 55-30l1 105H24l-1-265h31l2 30c10-21 28-34 59-34zm-8 174c40 0 45-34 45-75s-6-73-45-74c-42 0-51 32-51 76 0 43 10 73 51 73" id="aD"/><path d="M100-194c62-1 85 37 85 99 1 63-27 99-86 99S16-35 15-95c0-66 28-99 85-99zM99-20c44 1 53-31 53-75 0-43-8-75-51-75s-53 32-53 75 10 74 51 75" id="aE"/><g id="d"><use transform="matrix(0.05,0,0,0.05,0,0)" xlink:href="#aC"/><use transform="matrix(0.05,0,0,0.05,12.950000000000001,0)" xlink:href="#aq"/><use transform="matrix(0.05,0,0,0.05,22.950000000000003,0)" xlink:href="#aD"/><use transform="matrix(0.05,0,0,0.05,32.95,0)" xlink:href="#aE"/><use transform="matrix(0.05,0,0,0.05,42.95,0)" xlink:href="#au"/></g><path d="M30-248c87 1 191-15 191 75 0 78-77 80-158 76V0H30v-248zm33 125c57 0 124 11 124-50 0-59-68-47-124-48v98" id="aF"/><path d="M85-194c31 0 48 13 60 33l-1-100h32l1 261h-30c-2-10 0-23-3-31C134-8 116 4 85 4 32 4 16-35 15-94c0-66 23-100 70-100zm9 24c-40 0-46 34-46 75 0 40 6 74 45 74 42 0 51-32 51-76 0-42-9-74-50-73" id="aG"/><path d="M24-231v-30h32v30H24zM24 0v-190h32V0H24" id="aH"/><g id="e"><use transform="matrix(0.05,0,0,0.05,0,0)" xlink:href="#aF"/><use transform="matrix(0.05,0,0,0.05,12,0)" xlink:href="#aB"/><use transform="matrix(0.05,0,0,0.05,17.95,0)" xlink:href="#aE"/><use transform="matrix(0.05,0,0,0.05,27.950000000000003,0)" xlink:href="#aG"/><use transform="matrix(0.05,0,0,0.05,37.95,0)" xlink:href="#aA"/><use transform="matrix(0.05,0,0,0.05,47.95,0)" xlink:href="#ax"/><use transform="matrix(0.05,0,0,0.05,56.95,0)" xlink:href="#av"/><use transform="matrix(0.05,0,0,0.05,61.95,0)" xlink:href="#aH"/><use transform="matrix(0.05,0,0,0.05,65.9,0)" xlink:href="#aE"/><use transform="matrix(0.05,0,0,0.05,75.9,0)" xlink:href="#at"/></g><linearGradient gradientUnits="userSpaceOnUse" id="f" x1="102.49" y1="260.57" x2="102.49" y2="140.57"><stop offset="0%" stop-color="#0078d4"/><stop offset="81.7%" stop-color="#5ea0ef"/></linearGradient><path d="M33 0v-38h34V0H33" id="aI"/><path d="M179-190L93 31C79 59 56 82 12 73V49c39 6 53-20 64-50L1-190h34L92-34l54-156h33" id="aJ"/><g id="g"><use transform="matrix(0.05,0,0,0.05,0,0)" xlink:href="#aD"/><use transform="matrix(0.05,0,0,0.05,10,0)" xlink:href="#aB"/><use transform="matrix(0.05,0,0,0.05,15.949999999999998,0)" xlink:href="#aq"/><use transform="matrix(0.05,0,0,0.05,25.950000000000003,0)" xlink:href="#aD"/><use transform="matrix(0.05,0,0,0.05,35.95,0)" xlink:href="#aB"/><use transform="matrix(0.05,0,0,0.05,41.900000000000006,0)" xlink:href="#aE"/><use transform="matrix(0.05,0,0,0.05,51.900000000000006,0)" xlink:href="#ax"/><use transform="matrix(0.05,0,0,0.05,60.900000000000006,0)" xlink:href="#aq"/><use transform="matrix(0.05,0,0,0.05,70.9,0)" xlink:href="#au"/><use transform="matrix(0.05,0,0,0.05,79.9,0)" xlink:href="#au"/><use transform="matrix(0.05,0,0,0.05,88.9,0)" xlink:href="#aI"/><use transform="matrix(0.05,0,0,0.05,93.9,0)" xlink:href="#aD"/><use transform="matrix(0.05,0,0,0.05,103.9,0)" xlink:href="#aJ"/></g><linearGradient gradientUnits="userSpaceOnUse" id="h" x1="344.67" y1="260.57" x2="344.67" y2="140.57"><stop offset="0%" stop-color="#0078d4"/><stop offset="81.7%" stop-color="#5ea0ef"/></linearGradient><g id="i"><use transform="matrix(0.05,0,0,0.05,0,0)" xlink:href="#av"/><use transform="matrix(0.05,0,0,0.05,5,0)" xlink:href="#aB"/><use transform="matrix(0.05,0,0,0.05,10.95,0)" xlink:href="#aw"/><use transform="matrix(0.05,0,0,0.05,20.95,0)" xlink:href="#aH"/><use transform="matrix(0.05,0,0,0.05,24.9,0)" xlink:href="#at"/><use transform="matrix(0.05,0,0,0.05,34.9,0)" xlink:href="#aI"/><use transform="matrix(0.05,0,0,0.05,39.9,0)" xlink:href="#aD"/><use transform="matrix(0.05,0,0,0.05,49.9,0)" xlink:href="#aJ"/><path fill="#8080ff" d="M-.9 1.25h60.7v1.32H-.9z"/></g><path d="M24 0v-261h32V0H24" id="aK"/><g id="j"><use transform="matrix(0.05,0,0,0.05,0,0)" xlink:href="#aF"/><use transform="matrix(0.05,0,0,0.05,12,0)" xlink:href="#aH"/><use transform="matrix(0.05,0,0,0.05,15.949999999999998,0)" xlink:href="#aD"/><use transform="matrix(0.05,0,0,0.05,25.950000000000003,0)" xlink:href="#aq"/><use transform="matrix(0.05,0,0,0.05,35.95,0)" xlink:href="#aK"/><use transform="matrix(0.05,0,0,0.05,39.900000000000006,0)" xlink:href="#aH"/><use transform="matrix(0.05,0,0,0.05,43.85000000000001,0)" xlink:href="#at"/><use transform="matrix(0.05,0,0,0.05,53.85,0)" xlink:href="#aq"/><use transform="matrix(0.05,0,0,0.05,63.85,0)" xlink:href="#au"/></g><path d="M140-251c81 0 123 46 123 126C263-46 219 4 140 4 59 4 17-45 17-125s42-126 123-126zm0 227c63 0 89-41 89-101s-29-99-89-99c-61 0-89 39-89 99S79-25 140-24" id="aL"/><g id="k"><use transform="matrix(0.05,0,0,0.05,0,0)" xlink:href="#ap"/><use transform="matrix(0.05,0,0,0.05,12.950000000000001,0)" xlink:href="#aq"/><use transform="matrix(0.05,0,0,0.05,22.950000000000003,0)" xlink:href="#ar"/><use transform="matrix(0.05,0,0,0.05,31.950000000000003,0)" xlink:href="#aL"/><use transform="matrix(0.05,0,0,0.05,45.95,0)" xlink:href="#aD"/><use transform="matrix(0.05,0,0,0.05,55.95,0)" xlink:href="#au"/></g><linearGradient gradientUnits="userSpaceOnUse" id="l" x1="606.51" y1="-92.69" x2="606.51" y2="-212.69"><stop offset="19.9%" stop-color="#005ba1"/><stop offset="100%" stop-color="#0078d4"/></linearGradient><linearGradient gradientUnits="userSpaceOnUse" id="m" x1="606.51" y1="-92.69" x2="606.51" y2="-212.36"><stop offset="0%" stop-color="#198ab3"/><stop offset="17.2%" stop-color="#32bedd"/><stop offset="50%" stop-color="#50e6ff"/><stop offset="50%" stop-color="#4fe4fd"/><stop offset="50%" stop-color="#4bddf8"/><stop offset="50%" stop-color="#44d2ee"/><stop offset="50%" stop-color="#3ac1e0"/><stop offset="50%" stop-color="#2dabce"/><stop offset="50%" stop-color="#1d90b8"/><stop offset="50%" stop-color="#198ab3"/><stop offset="66.2%" stop-color="#32bedd"/><stop offset="97.5%" stop-color="#50e6ff"/></linearGradient><path d="M185-189c-5-48-123-54-124 2 14 75 158 14 163 119 3 78-121 87-175 55-17-10-28-26-33-46l33-7c5 56 141 63 141-1 0-78-155-14-162-118-5-82 145-84 179-34 5 7 8 16 11 25" id="aM"/><g id="n"><use transform="matrix(0.05,0,0,0.05,0,0)" xlink:href="#aM"/><use transform="matrix(0.05,0,0,0.05,12,0)" xlink:href="#aJ"/><use transform="matrix(0.05,0,0,0.05,21,0)" xlink:href="#at"/><use transform="matrix(0.05,0,0,0.05,31,0)" xlink:href="#aw"/><use transform="matrix(0.05,0,0,0.05,41,0)" xlink:href="#aD"/><use transform="matrix(0.05,0,0,0.05,51,0)" xlink:href="#au"/><use transform="matrix(0.05,0,0,0.05,60,0)" xlink:href="#aq"/></g><g id="o"><use transform="matrix(0.05,0,0,0.05,0,0)" xlink:href="#ay"/><use transform="matrix(0.05,0,0,0.05,12,0)" xlink:href="#at"/><use transform="matrix(0.05,0,0,0.05,22,0)" xlink:href="#aw"/><use transform="matrix(0.05,0,0,0.05,32,0)" xlink:href="#aK"/><use transform="matrix(0.05,0,0,0.05,35.95,0)" xlink:href="#aJ"/><use transform="matrix(0.05,0,0,0.05,44.95,0)" xlink:href="#av"/><use transform="matrix(0.05,0,0,0.05,49.95,0)" xlink:href="#aH"/><use transform="matrix(0.05,0,0,0.05,53.900000000000006,0)" xlink:href="#ax"/><use transform="matrix(0.05,0,0,0.05,62.900000000000006,0)" xlink:href="#au"/></g><path fill="#333" d="M182-182c0 78-84 86-111 141h115V0H12c-6-101 99-100 120-180 1-22-12-31-33-32-23 0-32 14-35 34l-49-3c5-45 32-70 84-70 51 0 83 22 83 69" id="aN"/><path fill="#333" d="M24 0v-54h51V0H24" id="aO"/><g id="p"><use transform="matrix(0.04938271604938272,0,0,0.04938271604938272,0,0)" xlink:href="#aN"/><use transform="matrix(0.04938271604938272,0,0,0.04938271604938272,9.876543209876544,0)" xlink:href="#aO"/></g><path fill="#333" d="M135-194c53 0 70 44 70 98 0 56-19 98-73 100-31 1-45-17-59-34 3 33 2 69 2 105H25l-1-265h48c2 10 0 23 3 31 11-24 29-35 60-35zM114-30c33 0 39-31 40-66 0-38-9-64-40-64-56 0-55 130 0 130" id="aP"/><path fill="#333" d="M85 4C-2 5 27-109 22-190h50c7 57-23 150 33 157 60-5 35-97 40-157h50l1 190h-47c-2-12 1-28-3-38-12 25-28 42-61 42" id="aQ"/><path fill="#333" d="M25 0v-261h50V0H25" id="aR"/><g id="q"><use transform="matrix(0.04938271604938272,0,0,0.04938271604938272,0,0)" xlink:href="#aP"/><use transform="matrix(0.04938271604938272,0,0,0.04938271604938272,10.814814814814815,0)" xlink:href="#aQ"/><use transform="matrix(0.04938271604938272,0,0,0.04938271604938272,21.62962962962963,0)" xlink:href="#aR"/><use transform="matrix(0.04938271604938272,0,0,0.04938271604938272,26.567901234567902,0)" xlink:href="#aR"/></g><path fill="#333" d="M88-194c31-1 46 15 58 34l-1-101h50l1 261h-48c-2-10 0-23-3-31C134-8 116 4 84 4 32 4 16-41 15-95c0-56 19-97 73-99zm17 164c33 0 40-30 41-66 1-37-9-64-41-64s-38 30-39 65c0 43 13 65 39 65" id="aS"/><path fill="#333" d="M133-34C117-15 103 5 69 4 32 3 11-16 11-54c-1-60 55-63 116-61 1-26-3-47-28-47-18 1-26 9-28 27l-52-2c7-38 36-58 82-57s74 22 75 68l1 82c-1 14 12 18 25 15v27c-30 8-71 5-69-32zm-48 3c29 0 43-24 42-57-32 0-66-3-65 30 0 17 8 27 23 27" id="aT"/><path fill="#333" d="M115-3C79 11 28 4 28-45v-112H4v-33h27l15-45h31v45h36v33H77v99c-1 23 16 31 38 25v30" id="aU"/><g id="r"><use transform="matrix(0.04938271604938272,0,0,0.04938271604938272,0,0)" xlink:href="#aS"/><use transform="matrix(0.04938271604938272,0,0,0.04938271604938272,10.814814814814815,0)" xlink:href="#aT"/><use transform="matrix(0.04938271604938272,0,0,0.04938271604938272,20.69135802469136,0)" xlink:href="#aU"/><use transform="matrix(0.04938271604938272,0,0,0.04938271604938272,26.567901234567902,0)" xlink:href="#aT"/></g><path fill="#333" d="M135-150c-39-12-60 13-60 57V0H25l-1-190h47c2 13-1 29 3 40 6-28 27-53 61-41v41" id="aV"/><path fill="#333" d="M25-224v-37h50v37H25zM25 0v-190h50V0H25" id="aW"/><path fill="#333" d="M135-194c87-1 58 113 63 194h-50c-7-57 23-157-34-157-59 0-34 97-39 157H25l-1-190h47c2 12-1 28 3 38 12-26 28-41 61-42" id="aX"/><g id="s"><use transform="matrix(0.04938271604938272,0,0,0.04938271604938272,0,0)" xlink:href="#aU"/><use transform="matrix(0.04938271604938272,0,0,0.04938271604938272,5.8765432098765435,0)" xlink:href="#aV"/><use transform="matrix(0.04938271604938272,0,0,0.04938271604938272,12.790123456790125,0)" xlink:href="#aT"/><use transform="matrix(0.04938271604938272,0,0,0.04938271604938272,22.666666666666668,0)" xlink:href="#aW"/><use transform="matrix(0.04938271604938272,0,0,0.04938271604938272,27.60493827160494,0)" xlink:href="#aX"/></g><path fill="#333" d="M220-157c-53 9-28 100-34 157h-49v-107c1-27-5-49-29-50C55-147 81-57 75 0H25l-1-190h47c2 12-1 28 3 38 10-53 101-56 108 0 13-22 24-43 59-42 82 1 51 116 57 194h-49v-107c-1-25-5-48-29-50" id="aY"/><path fill="#333" d="M110-194c64 0 96 36 96 99 0 64-35 99-97 99-61 0-95-36-95-99 0-62 34-99 96-99zm-1 164c35 0 45-28 45-65 0-40-10-65-43-65-34 0-45 26-45 65 0 36 10 65 43 65" id="aZ"/><path fill="#333" d="M185-48c-13 30-37 53-82 52C43 2 14-33 14-96s30-98 90-98c62 0 83 45 84 108H66c0 31 8 55 39 56 18 0 30-7 34-22zm-45-69c5-46-57-63-70-21-2 6-4 13-4 21h74" id="ba"/><g id="t"><use transform="matrix(0.04938271604938272,0,0,0.04938271604938272,0,0)" xlink:href="#aY"/><use transform="matrix(0.04938271604938272,0,0,0.04938271604938272,15.80246913580247,0)" xlink:href="#aZ"/><use transform="matrix(0.04938271604938272,0,0,0.04938271604938272,26.617283950617285,0)" xlink:href="#aS"/><use transform="matrix(0.04938271604938272,0,0,0.04938271604938272,37.4320987654321,0)" xlink:href="#ba"/><use transform="matrix(0.04938271604938272,0,0,0.04938271604938272,47.308641975308646,0)" xlink:href="#aR"/></g><path d="M177-190C167-65 218 103 67 71c-23-6-38-20-44-43l32-5c15 47 100 32 89-28v-30C133-14 115 1 83 1 29 1 15-40 15-95c0-56 16-97 71-98 29-1 48 16 59 35 1-10 0-23 2-32h30zM94-22c36 0 50-32 50-73 0-42-14-75-50-75-39 0-46 34-46 75s6 73 46 73" id="bb"/><g id="u"><use transform="matrix(0.05,0,0,0.05,0,0)" xlink:href="#aM"/><use transform="matrix(0.05,0,0,0.05,12,0)" xlink:href="#av"/><use transform="matrix(0.05,0,0,0.05,17,0)" xlink:href="#aw"/><use transform="matrix(0.05,0,0,0.05,27,0)" xlink:href="#bb"/><use transform="matrix(0.05,0,0,0.05,37,0)" xlink:href="#aH"/><use transform="matrix(0.05,0,0,0.05,40.95,0)" xlink:href="#at"/><use transform="matrix(0.05,0,0,0.05,50.95,0)" xlink:href="#bb"/></g><radialGradient gradientUnits="userSpaceOnUse" id="v" fx="1107.62" fy="176.85" cx="1107.62" cy="176.85" r="59.72"><stop offset="67%" stop-color="#6bb9f2"/><stop offset="74%" stop-color="#61b4f1"/><stop offset="85%" stop-color="#47a8ef"/><stop offset="99%" stop-color="#1d94eb"/><stop offset="100%" stop-color="#1b93eb"/></radialGradient><path d="M240 0l2-218c-23 76-54 145-80 218h-23L58-218 59 0H30v-248h44l77 211c21-75 51-140 76-211h43V0h-30" id="bc"/><g id="w"><use transform="matrix(0.05,0,0,0.05,0,0)" xlink:href="#bc"/><use transform="matrix(0.05,0,0,0.05,14.950000000000001,0)" xlink:href="#aE"/><use transform="matrix(0.05,0,0,0.05,24.950000000000003,0)" xlink:href="#aG"/><use transform="matrix(0.05,0,0,0.05,34.95,0)" xlink:href="#aq"/><use transform="matrix(0.05,0,0,0.05,44.95,0)" xlink:href="#aK"/></g><g id="x"><use transform="matrix(0.05,0,0,0.05,0,0)" xlink:href="#aC"/><use transform="matrix(0.05,0,0,0.05,12.950000000000001,0)" xlink:href="#aq"/><use transform="matrix(0.05,0,0,0.05,22.950000000000003,0)" xlink:href="#bb"/><use transform="matrix(0.05,0,0,0.05,32.95,0)" xlink:href="#aH"/><use transform="matrix(0.05,0,0,0.05,36.900000000000006,0)" xlink:href="#au"/><use transform="matrix(0.05,0,0,0.05,45.900000000000006,0)" xlink:href="#av"/><use transform="matrix(0.05,0,0,0.05,50.900000000000006,0)" xlink:href="#aB"/><use transform="matrix(0.05,0,0,0.05,56.85,0)" xlink:href="#aJ"/></g><path fill="#333" d="M128-127c34 4 56 21 59 58 7 91-148 94-172 28-4-9-6-17-7-26l51-5c1 24 16 35 40 36 23 0 39-12 38-36-1-31-31-36-65-34v-40c32 2 59-3 59-33 0-20-13-33-34-33s-33 13-35 32l-50-3c6-44 37-68 86-68 50 0 83 20 83 66 0 35-22 52-53 58" id="bd"/><g id="y"><use transform="matrix(0.04938271604938272,0,0,0.04938271604938272,0,0)" xlink:href="#bd"/><use transform="matrix(0.04938271604938272,0,0,0.04938271604938272,9.876543209876544,0)" xlink:href="#aO"/></g><path fill="#333" d="M137-138c1-29-70-34-71-4 15 46 118 7 119 86 1 83-164 76-172 9l43-7c4 19 20 25 44 25 33 8 57-30 24-41C81-84 22-81 20-136c-2-80 154-74 161-7" id="be"/><path fill="#333" d="M195-6C206 82 75 100 31 46c-4-6-6-13-8-21l49-6c3 16 16 24 34 25 40 0 42-37 40-79-11 22-30 35-61 35-53 0-70-43-70-97 0-56 18-96 73-97 30 0 46 14 59 34l2-30h47zm-90-29c32 0 41-27 41-63 0-35-9-62-40-62-32 0-39 29-40 63 0 36 9 62 39 62" id="bf"/><g id="z"><use transform="matrix(0.04938271604938272,0,0,0.04938271604938272,0,0)" xlink:href="#be"/><use transform="matrix(0.04938271604938272,0,0,0.04938271604938272,9.876543209876544,0)" xlink:href="#aU"/><use transform="matrix(0.04938271604938272,0,0,0.04938271604938272,15.753086419753087,0)" xlink:href="#aT"/><use transform="matrix(0.04938271604938272,0,0,0.04938271604938272,25.629629629629633,0)" xlink:href="#bf"/><use transform="matrix(0.04938271604938272,0,0,0.04938271604938272,36.44444444444445,0)" xlink:href="#ba"/></g><linearGradient gradientUnits="userSpaceOnUse" id="A" x1="1109.33" y1="453.2" x2="1109.33" y2="333.2"><stop offset="0%" stop-color="#0078d4"/><stop offset="81.7%" stop-color="#5ea0ef"/></linearGradient><g id="B"><use transform="matrix(0.05,0,0,0.05,0,0)" xlink:href="#aG"/><use transform="matrix(0.05,0,0,0.05,10,0)" xlink:href="#aq"/><use transform="matrix(0.05,0,0,0.05,20,0)" xlink:href="#aD"/><use transform="matrix(0.05,0,0,0.05,30,0)" xlink:href="#aK"/><use transform="matrix(0.05,0,0,0.05,33.95,0)" xlink:href="#aE"/><use transform="matrix(0.05,0,0,0.05,43.95,0)" xlink:href="#aJ"/><use transform="matrix(0.05,0,0,0.05,51.6,0)" xlink:href="#aI"/><use transform="matrix(0.05,0,0,0.05,56.6,0)" xlink:href="#aD"/><use transform="matrix(0.05,0,0,0.05,66.6,0)" xlink:href="#aJ"/></g><path fill="#333" d="M165-50V0h-47v-50H5v-38l105-160h55v161h33v37h-33zm-47-37l2-116L46-87h72" id="bg"/><g id="C"><use transform="matrix(0.04938271604938272,0,0,0.04938271604938272,0,0)" xlink:href="#bg"/><use transform="matrix(0.04938271604938272,0,0,0.04938271604938272,9.876543209876544,0)" xlink:href="#aO"/></g><g id="D"><use transform="matrix(0.04938271604938272,0,0,0.04938271604938272,0,0)" xlink:href="#aU"/><use transform="matrix(0.04938271604938272,0,0,0.04938271604938272,5.8765432098765435,0)" xlink:href="#aV"/><use transform="matrix(0.04938271604938272,0,0,0.04938271604938272,12.790123456790125,0)" xlink:href="#aW"/><use transform="matrix(0.04938271604938272,0,0,0.04938271604938272,17.728395061728396,0)" xlink:href="#bf"/><use transform="matrix(0.04938271604938272,0,0,0.04938271604938272,28.543209876543205,0)" xlink:href="#bf"/><use transform="matrix(0.04938271604938272,0,0,0.04938271604938272,39.358024691358025,0)" xlink:href="#ba"/><use transform="matrix(0.04938271604938272,0,0,0.04938271604938272,49.23456790123457,0)" xlink:href="#aV"/></g><g id="E"><use transform="matrix(0.04938271604938272,0,0,0.04938271604938272,0,0)" xlink:href="#be"/><use transform="matrix(0.04938271604938272,0,0,0.04938271604938272,9.876543209876544,0)" xlink:href="#aU"/><use transform="matrix(0.04938271604938272,0,0,0.04938271604938272,15.753086419753087,0)" xlink:href="#aT"/><use transform="matrix(0.04938271604938272,0,0,0.04938271604938272,25.629629629629633,0)" xlink:href="#bf"/><use transform="matrix(0.04938271604938272,0,0,0.04938271604938272,36.44444444444445,0)" xlink:href="#aW"/><use transform="matrix(0.04938271604938272,0,0,0.04938271604938272,41.38271604938272,0)" xlink:href="#aX"/><use transform="matrix(0.04938271604938272,0,0,0.04938271604938272,52.19753086419754,0)" xlink:href="#bf"/></g><g id="F"><use transform="matrix(0.04938271604938272,0,0,0.04938271604938272,0,0)" xlink:href="#aP"/><use transform="matrix(0.04938271604938272,0,0,0.04938271604938272,10.814814814814815,0)" xlink:href="#aW"/><use transform="matrix(0.04938271604938272,0,0,0.04938271604938272,15.753086419753087,0)" xlink:href="#aP"/><use transform="matrix(0.04938271604938272,0,0,0.04938271604938272,26.567901234567902,0)" xlink:href="#ba"/><use transform="matrix(0.04938271604938272,0,0,0.04938271604938272,36.44444444444444,0)" xlink:href="#aR"/><use transform="matrix(0.04938271604938272,0,0,0.04938271604938272,41.382716049382715,0)" xlink:href="#aW"/><use transform="matrix(0.04938271604938272,0,0,0.04938271604938272,46.32098765432099,0)" xlink:href="#aX"/><use transform="matrix(0.04938271604938272,0,0,0.04938271604938272,57.135802469135804,0)" xlink:href="#ba"/></g><path fill="#333" d="M23 0v-37h61v-169l-59 37v-38l62-41h46v211h57V0H23" id="bh"/><g id="G"><use transform="matrix(0.04938271604938272,0,0,0.04938271604938272,0,0)" xlink:href="#bh"/><use transform="matrix(0.04938271604938272,0,0,0.04938271604938272,9.876543209876544,0)" xlink:href="#aO"/></g><path fill="#333" d="M190-63c-7 42-38 67-86 67-59 0-84-38-90-98-12-110 154-137 174-36l-49 2c-2-19-15-32-35-32-30 0-35 28-38 64-6 74 65 87 74 30" id="bi"/><g id="H"><use transform="matrix(0.04938271604938272,0,0,0.04938271604938272,0,0)" xlink:href="#aP"/><use transform="matrix(0.04938271604938272,0,0,0.04938271604938272,10.814814814814815,0)" xlink:href="#aV"/><use transform="matrix(0.04938271604938272,0,0,0.04938271604938272,17.728395061728396,0)" xlink:href="#ba"/><use transform="matrix(0.04938271604938272,0,0,0.04938271604938272,27.60493827160494,0)" xlink:href="#aP"/><use transform="matrix(0.04938271604938272,0,0,0.04938271604938272,38.41975308641975,0)" xlink:href="#aV"/><use transform="matrix(0.04938271604938272,0,0,0.04938271604938272,45.333333333333336,0)" xlink:href="#aZ"/><use transform="matrix(0.04938271604938272,0,0,0.04938271604938272,56.14814814814815,0)" xlink:href="#bi"/><use transform="matrix(0.04938271604938272,0,0,0.04938271604938272,66.0246913580247,0)" xlink:href="#ba"/><use transform="matrix(0.04938271604938272,0,0,0.04938271604938272,75.90123456790124,0)" xlink:href="#be"/><use transform="matrix(0.04938271604938272,0,0,0.04938271604938272,85.77777777777779,0)" xlink:href="#be"/></g><g id="I"><use transform="matrix(0.04938271604938272,0,0,0.04938271604938272,0,0)" xlink:href="#aT"/><use transform="matrix(0.04938271604938272,0,0,0.04938271604938272,9.876543209876544,0)" xlink:href="#aX"/><use transform="matrix(0.04938271604938272,0,0,0.04938271604938272,20.69135802469136,0)" xlink:href="#aS"/></g><g id="J"><use transform="matrix(0.04938271604938272,0,0,0.04938271604938272,0,0)" xlink:href="#be"/><use transform="matrix(0.04938271604938272,0,0,0.04938271604938272,9.876543209876544,0)" xlink:href="#aU"/><use transform="matrix(0.04938271604938272,0,0,0.04938271604938272,15.753086419753087,0)" xlink:href="#aZ"/><use transform="matrix(0.04938271604938272,0,0,0.04938271604938272,26.567901234567902,0)" xlink:href="#aV"/><use transform="matrix(0.04938271604938272,0,0,0.04938271604938272,33.48148148148149,0)" xlink:href="#ba"/></g><path fill="#333" d="M139-81c0-46-55-55-73-27H18l9-140h149v37H72l-4 63c44-38 133-4 122 66C201 21 21 35 11-62l49-4c5 18 15 30 39 30 26 0 40-18 40-45" id="bj"/><g id="K"><use transform="matrix(0.04938271604938272,0,0,0.04938271604938272,0,0)" xlink:href="#bj"/><use transform="matrix(0.04938271604938272,0,0,0.04938271604938272,9.876543209876544,0)" xlink:href="#aO"/></g><path fill="#333" d="M123 10C108 53 80 86 19 72V37c35 8 53-11 59-39L3-190h52l48 148c12-52 28-100 44-148h51" id="bk"/><g id="L"><use transform="matrix(0.04938271604938272,0,0,0.04938271604938272,0,0)" xlink:href="#aS"/><use transform="matrix(0.04938271604938272,0,0,0.04938271604938272,10.814814814814815,0)" xlink:href="#ba"/><use transform="matrix(0.04938271604938272,0,0,0.04938271604938272,20.69135802469136,0)" xlink:href="#aP"/><use transform="matrix(0.04938271604938272,0,0,0.04938271604938272,31.506172839506174,0)" xlink:href="#aR"/><use transform="matrix(0.04938271604938272,0,0,0.04938271604938272,36.44444444444445,0)" xlink:href="#aZ"/><use transform="matrix(0.04938271604938272,0,0,0.04938271604938272,47.25925925925927,0)" xlink:href="#bk"/></g><path fill="#333" d="M115-159c48 0 72 30 72 78 0 54-30 85-83 85-64 0-91-50-91-122 0-98 58-163 141-120 15 8 21 24 27 44l-47 6c-5-31-48-31-61-4-7 14-11 33-11 60 9-17 28-27 53-27zM102-35c24 0 36-20 36-45s-11-43-37-43c-23 0-36 14-36 38 0 27 11 50 37 50" id="bl"/><g id="M"><use transform="matrix(0.04938271604938272,0,0,0.04938271604938272,0,0)" xlink:href="#bl"/><use transform="matrix(0.04938271604938272,0,0,0.04938271604938272,9.876543209876544,0)" xlink:href="#aO"/></g><path fill="#333" d="M128 0H69L1-190h53L99-40l48-150h52" id="bm"/><g id="N"><use transform="matrix(0.04938271604938272,0,0,0.04938271604938272,0,0)" xlink:href="#aV"/><use transform="matrix(0.04938271604938272,0,0,0.04938271604938272,6.913580246913581,0)" xlink:href="#ba"/><use transform="matrix(0.04938271604938272,0,0,0.04938271604938272,16.790123456790127,0)" xlink:href="#aU"/><use transform="matrix(0.04938271604938272,0,0,0.04938271604938272,22.66666666666667,0)" xlink:href="#aV"/><use transform="matrix(0.04938271604938272,0,0,0.04938271604938272,29.580246913580254,0)" xlink:href="#aW"/><use transform="matrix(0.04938271604938272,0,0,0.04938271604938272,34.518518518518526,0)" xlink:href="#ba"/><use transform="matrix(0.04938271604938272,0,0,0.04938271604938272,44.39506172839507,0)" xlink:href="#bm"/><use transform="matrix(0.04938271604938272,0,0,0.04938271604938272,54.27160493827161,0)" xlink:href="#ba"/></g><path fill="#333" d="M52 0c1-96 47-148 87-207H15v-41h169v40c-36 62-79 113-81 208H52" id="bn"/><g id="O"><use transform="matrix(0.04938271604938272,0,0,0.04938271604938272,0,0)" xlink:href="#bn"/><use transform="matrix(0.04938271604938272,0,0,0.04938271604938272,9.876543209876544,0)" xlink:href="#aO"/></g><g id="P"><use transform="matrix(0.04938271604938272,0,0,0.04938271604938272,0,0)" xlink:href="#aS"/><use transform="matrix(0.04938271604938272,0,0,0.04938271604938272,10.814814814814815,0)" xlink:href="#ba"/><use transform="matrix(0.04938271604938272,0,0,0.04938271604938272,20.69135802469136,0)" xlink:href="#aP"/><use transform="matrix(0.04938271604938272,0,0,0.04938271604938272,31.506172839506174,0)" xlink:href="#aR"/><use transform="matrix(0.04938271604938272,0,0,0.04938271604938272,36.44444444444445,0)" xlink:href="#aZ"/><use transform="matrix(0.04938271604938272,0,0,0.04938271604938272,47.25925925925927,0)" xlink:href="#bk"/></g><path fill="#333" d="M138-131c27 9 52 24 51 61 0 53-36 74-89 74S11-19 11-69c0-35 22-54 51-61-78-25-46-121 38-121 51 0 83 19 83 66 0 30-18 49-45 54zm-38-16c24 0 32-13 32-36 1-23-11-34-32-34-22 0-33 12-32 34 0 22 9 36 32 36zm1 116c27 0 37-17 37-43 0-25-13-39-39-39-24 0-37 15-37 40 0 27 11 42 39 42" id="bo"/><g id="Q"><use transform="matrix(0.04938271604938272,0,0,0.04938271604938272,0,0)" xlink:href="#bo"/><use transform="matrix(0.04938271604938272,0,0,0.04938271604938272,9.876543209876544,0)" xlink:href="#aO"/></g><path fill="#333" d="M144 0l-44-69L55 0H2l70-98-66-92h53l41 62 40-62h54l-67 91 71 99h-54" id="bp"/><g id="R"><use transform="matrix(0.04938271604938272,0,0,0.04938271604938272,0,0)" xlink:href="#ba"/><use transform="matrix(0.04938271604938272,0,0,0.04938271604938272,9.876543209876544,0)" xlink:href="#bp"/><use transform="matrix(0.04938271604938272,0,0,0.04938271604938272,19.75308641975309,0)" xlink:href="#aP"/><use transform="matrix(0.04938271604938272,0,0,0.04938271604938272,30.567901234567906,0)" xlink:href="#aZ"/><use transform="matrix(0.04938271604938272,0,0,0.04938271604938272,41.38271604938272,0)" xlink:href="#be"/><use transform="matrix(0.04938271604938272,0,0,0.04938271604938272,51.25925925925927,0)" xlink:href="#ba"/></g><path fill="#333" d="M121-226c-27-7-43 5-38 36h38v33H83V0H34v-157H6v-33h28c-9-59 32-81 87-68v32" id="bq"/><g id="S"><use transform="matrix(0.04938271604938272,0,0,0.04938271604938272,0,0)" xlink:href="#aW"/><use transform="matrix(0.04938271604938272,0,0,0.04938271604938272,4.938271604938272,0)" xlink:href="#aX"/><use transform="matrix(0.04938271604938272,0,0,0.04938271604938272,15.753086419753087,0)" xlink:href="#bq"/><use transform="matrix(0.04938271604938272,0,0,0.04938271604938272,21.62962962962963,0)" xlink:href="#ba"/><use transform="matrix(0.04938271604938272,0,0,0.04938271604938272,31.506172839506174,0)" xlink:href="#aV"/><use transform="matrix(0.04938271604938272,0,0,0.04938271604938272,38.41975308641975,0)" xlink:href="#ba"/><use transform="matrix(0.04938271604938272,0,0,0.04938271604938272,48.2962962962963,0)" xlink:href="#aX"/><use transform="matrix(0.04938271604938272,0,0,0.04938271604938272,59.111111111111114,0)" xlink:href="#bi"/><use transform="matrix(0.04938271604938272,0,0,0.04938271604938272,68.98765432098766,0)" xlink:href="#ba"/></g><g id="T"><use transform="matrix(0.04938271604938272,0,0,0.04938271604938272,0,0)" xlink:href="#aT"/><use transform="matrix(0.04938271604938272,0,0,0.04938271604938272,9.876543209876544,0)" xlink:href="#aP"/><use transform="matrix(0.04938271604938272,0,0,0.04938271604938272,20.69135802469136,0)" xlink:href="#aW"/></g><linearGradient gradientUnits="userSpaceOnUse" id="U" x1="2007.55" y1="358" x2="2007.55" y2="238"><stop offset="0%" stop-color="#0078d4"/><stop offset="81.7%" stop-color="#5ea0ef"/></linearGradient><g id="V"><use transform="matrix(0.05,0,0,0.05,0,0)" xlink:href="#av"/><use transform="matrix(0.05,0,0,0.05,5,0)" xlink:href="#aq"/><use transform="matrix(0.05,0,0,0.05,15,0)" xlink:href="#au"/><use transform="matrix(0.05,0,0,0.05,24,0)" xlink:href="#av"/><use transform="matrix(0.05,0,0,0.05,29,0)" xlink:href="#aH"/><use transform="matrix(0.05,0,0,0.05,32.95,0)" xlink:href="#at"/><use transform="matrix(0.05,0,0,0.05,42.95,0)" xlink:href="#bb"/><use transform="matrix(0.05,0,0,0.05,52.95,0)" xlink:href="#aI"/><use transform="matrix(0.05,0,0,0.05,57.95,0)" xlink:href="#aD"/><use transform="matrix(0.05,0,0,0.05,67.95,0)" xlink:href="#aJ"/><path fill="#8080ff" d="M-.9 1.25h78.75v1.32H-.9z"/></g><path fill="#333" d="M101-251c68 0 84 54 84 127C185-50 166 4 99 4S15-52 14-124c-1-75 17-127 87-127zm-1 216c37-5 36-46 36-89s4-89-36-89c-39 0-36 45-36 89 0 43-3 85 36 89" id="br"/><g id="W"><use transform="matrix(0.04938271604938272,0,0,0.04938271604938272,0,0)" xlink:href="#bh"/><use transform="matrix(0.04938271604938272,0,0,0.04938271604938272,9.876543209876544,0)" xlink:href="#br"/><use transform="matrix(0.04938271604938272,0,0,0.04938271604938272,19.75308641975309,0)" xlink:href="#aO"/></g><path fill="#333" d="M135-194c52 0 70 43 70 98 0 56-19 99-73 100-30 1-46-15-58-35L72 0H24l1-261h50v104c11-23 29-37 60-37zM114-30c31 0 40-27 40-66 0-37-7-63-39-63s-41 28-41 65c0 36 8 64 40 64" id="bs"/><g id="X"><use transform="matrix(0.04938271604938272,0,0,0.04938271604938272,0,0)" xlink:href="#bs"/><use transform="matrix(0.04938271604938272,0,0,0.04938271604938272,10.814814814814815,0)" xlink:href="#ba"/><use transform="matrix(0.04938271604938272,0,0,0.04938271604938272,20.69135802469136,0)" xlink:href="#be"/><use transform="matrix(0.04938271604938272,0,0,0.04938271604938272,30.567901234567906,0)" xlink:href="#aU"/></g><g id="Y"><use transform="matrix(0.04938271604938272,0,0,0.04938271604938272,0,0)" xlink:href="#bh"/><use transform="matrix(0.04938271604938272,0,0,0.04938271604938272,8.88888888888889,0)" xlink:href="#bh"/><use transform="matrix(0.04938271604938272,0,0,0.04938271604938272,18.765432098765434,0)" xlink:href="#aO"/></g><g id="Z"><use transform="matrix(0.04938271604938272,0,0,0.04938271604938272,0,0)" xlink:href="#aU"/><use transform="matrix(0.04938271604938272,0,0,0.04938271604938272,5.8765432098765435,0)" xlink:href="#ba"/><use transform="matrix(0.04938271604938272,0,0,0.04938271604938272,15.753086419753087,0)" xlink:href="#be"/><use transform="matrix(0.04938271604938272,0,0,0.04938271604938272,25.629629629629633,0)" xlink:href="#aU"/></g><g id="aa"><use transform="matrix(0.04938271604938272,0,0,0.04938271604938272,0,0)" xlink:href="#aT"/><use transform="matrix(0.04938271604938272,0,0,0.04938271604938272,9.876543209876544,0)" xlink:href="#bf"/><use transform="matrix(0.04938271604938272,0,0,0.04938271604938272,20.69135802469136,0)" xlink:href="#aT"/><use transform="matrix(0.04938271604938272,0,0,0.04938271604938272,30.567901234567906,0)" xlink:href="#aW"/><use transform="matrix(0.04938271604938272,0,0,0.04938271604938272,35.50617283950618,0)" xlink:href="#aX"/><use transform="matrix(0.04938271604938272,0,0,0.04938271604938272,46.320987654320994,0)" xlink:href="#be"/><use transform="matrix(0.04938271604938272,0,0,0.04938271604938272,56.19753086419754,0)" xlink:href="#aU"/></g><g id="ab"><use transform="matrix(0.04938271604938272,0,0,0.04938271604938272,0,0)" xlink:href="#aY"/><use transform="matrix(0.04938271604938272,0,0,0.04938271604938272,15.80246913580247,0)" xlink:href="#ba"/><use transform="matrix(0.04938271604938272,0,0,0.04938271604938272,25.679012345679016,0)" xlink:href="#aU"/><use transform="matrix(0.04938271604938272,0,0,0.04938271604938272,31.555555555555557,0)" xlink:href="#aV"/><use transform="matrix(0.04938271604938272,0,0,0.04938271604938272,38.46913580246914,0)" xlink:href="#aW"/><use transform="matrix(0.04938271604938272,0,0,0.04938271604938272,43.40740740740741,0)" xlink:href="#bi"/><use transform="matrix(0.04938271604938272,0,0,0.04938271604938272,53.283950617283956,0)" xlink:href="#be"/></g><path fill="#333" d="M99-251c69 0 84 53 88 123 5 99-61 162-144 118-15-8-21-25-26-45l46-6c4 31 50 33 63 7 7-15 12-36 12-60-9 18-29 28-54 28-48 0-72-32-72-82 0-55 31-83 87-83zm-1 128c24 0 37-16 37-39 0-27-10-51-37-51-25 0-35 19-35 45 0 25 10 45 35 45" id="bt"/><g id="ac"><use transform="matrix(0.04938271604938272,0,0,0.04938271604938272,0,0)" xlink:href="#bt"/><use transform="matrix(0.04938271604938272,0,0,0.04938271604938272,9.876543209876544,0)" xlink:href="#aO"/></g><path fill="#333" d="M147 0L96-86 75-71V0H25v-261h50v150l67-79h53l-66 74L201 0h-54" id="bu"/><g id="ad"><use transform="matrix(0.04938271604938272,0,0,0.04938271604938272,0,0)" xlink:href="#aS"/><use transform="matrix(0.04938271604938272,0,0,0.04938271604938272,10.814814814814815,0)" xlink:href="#aT"/><use transform="matrix(0.04938271604938272,0,0,0.04938271604938272,20.69135802469136,0)" xlink:href="#aU"/><use transform="matrix(0.04938271604938272,0,0,0.04938271604938272,26.567901234567902,0)" xlink:href="#aT"/><use transform="matrix(0.04938271604938272,0,0,0.04938271604938272,36.44444444444445,0)" xlink:href="#aS"/><use transform="matrix(0.04938271604938272,0,0,0.04938271604938272,47.25925925925927,0)" xlink:href="#aV"/><use transform="matrix(0.04938271604938272,0,0,0.04938271604938272,54.17283950617284,0)" xlink:href="#aW"/><use transform="matrix(0.04938271604938272,0,0,0.04938271604938272,59.111111111111114,0)" xlink:href="#bi"/><use transform="matrix(0.04938271604938272,0,0,0.04938271604938272,68.98765432098767,0)" xlink:href="#bu"/><use transform="matrix(0.04938271604938272,0,0,0.04938271604938272,78.86419753086422,0)" xlink:href="#be"/></g><g id="ae"><use transform="matrix(0.04938271604938272,0,0,0.04938271604938272,0,0)" xlink:href="#bh"/><use transform="matrix(0.04938271604938272,0,0,0.04938271604938272,9.876543209876544,0)" xlink:href="#aN"/><use transform="matrix(0.04938271604938272,0,0,0.04938271604938272,19.75308641975309,0)" xlink:href="#aO"/></g><g id="af"><use transform="matrix(0.04938271604938272,0,0,0.04938271604938272,0,0)" xlink:href="#aP"/><use transform="matrix(0.04938271604938272,0,0,0.04938271604938272,10.814814814814815,0)" xlink:href="#aV"/><use transform="matrix(0.04938271604938272,0,0,0.04938271604938272,17.728395061728396,0)" xlink:href="#aZ"/><use transform="matrix(0.04938271604938272,0,0,0.04938271604938272,28.543209876543205,0)" xlink:href="#aY"/><use transform="matrix(0.04938271604938272,0,0,0.04938271604938272,44.34567901234568,0)" xlink:href="#aZ"/><use transform="matrix(0.04938271604938272,0,0,0.04938271604938272,55.1604938271605,0)" xlink:href="#aU"/><use transform="matrix(0.04938271604938272,0,0,0.04938271604938272,61.037037037037045,0)" xlink:href="#ba"/></g><g id="ag"><use transform="matrix(0.04938271604938272,0,0,0.04938271604938272,0,0)" xlink:href="#aU"/><use transform="matrix(0.04938271604938272,0,0,0.04938271604938272,5.8765432098765435,0)" xlink:href="#aZ"/></g><g id="ah"><use transform="matrix(0.04938271604938272,0,0,0.04938271604938272,0,0)" xlink:href="#aP"/><use transform="matrix(0.04938271604938272,0,0,0.04938271604938272,10.814814814814815,0)" xlink:href="#aV"/><use transform="matrix(0.04938271604938272,0,0,0.04938271604938272,17.728395061728396,0)" xlink:href="#aZ"/><use transform="matrix(0.04938271604938272,0,0,0.04938271604938272,28.543209876543205,0)" xlink:href="#aS"/><use transform="matrix(0.04938271604938272,0,0,0.04938271604938272,39.358024691358025,0)" xlink:href="#aQ"/><use transform="matrix(0.04938271604938272,0,0,0.04938271604938272,50.17283950617284,0)" xlink:href="#bi"/><use transform="matrix(0.04938271604938272,0,0,0.04938271604938272,60.04938271604939,0)" xlink:href="#aU"/><use transform="matrix(0.04938271604938272,0,0,0.04938271604938272,65.92592592592592,0)" xlink:href="#aW"/><use transform="matrix(0.04938271604938272,0,0,0.04938271604938272,70.8641975308642,0)" xlink:href="#aZ"/><use transform="matrix(0.04938271604938272,0,0,0.04938271604938272,81.67901234567901,0)" xlink:href="#aX"/></g><path fill="#3a414a" d="M212-179c-10-28-35-45-73-45-59 0-87 40-87 99 0 60 29 101 89 101 43 0 62-24 78-52l27 14C228-24 195 4 139 4 59 4 22-46 18-125c-6-104 99-153 187-111 19 9 31 26 39 46" id="bv"/><path fill="#3a414a" d="M24 0v-261h32V0H24" id="bw"/><path fill="#3a414a" d="M100-194c62-1 85 37 85 99 1 63-27 99-86 99S16-35 15-95c0-66 28-99 85-99zM99-20c44 1 53-31 53-75 0-43-8-75-51-75s-53 32-53 75 10 74 51 75" id="bx"/><path fill="#3a414a" d="M84 4C-5 8 30-112 23-190h32v120c0 31 7 50 39 49 72-2 45-101 50-169h31l1 190h-30c-1-10 1-25-2-33-11 22-28 36-60 37" id="by"/><path fill="#3a414a" d="M85-194c31 0 48 13 60 33l-1-100h32l1 261h-30c-2-10 0-23-3-31C134-8 116 4 85 4 32 4 16-35 15-94c0-66 23-100 70-100zm9 24c-40 0-46 34-46 75 0 40 6 74 45 74 42 0 51-32 51-76 0-42-9-74-50-73" id="bz"/><g id="ai"><use transform="matrix(0.06172839506172839,0,0,0.06172839506172839,0,0)" xlink:href="#bv"/><use transform="matrix(0.06172839506172839,0,0,0.06172839506172839,15.987654320987653,0)" xlink:href="#bw"/><use transform="matrix(0.06172839506172839,0,0,0.06172839506172839,20.864197530864196,0)" xlink:href="#bx"/><use transform="matrix(0.06172839506172839,0,0,0.06172839506172839,33.20987654320987,0)" xlink:href="#by"/><use transform="matrix(0.06172839506172839,0,0,0.06172839506172839,45.55555555555555,0)" xlink:href="#bz"/></g><path fill="#3a414a" d="M185-189c-5-48-123-54-124 2 14 75 158 14 163 119 3 78-121 87-175 55-17-10-28-26-33-46l33-7c5 56 141 63 141-1 0-78-155-14-162-118-5-82 145-84 179-34 5 7 8 16 11 25" id="bA"/><path fill="#3a414a" d="M59-47c-2 24 18 29 38 22v24C64 9 27 4 27-40v-127H5v-23h24l9-43h21v43h35v23H59v120" id="bB"/><path fill="#3a414a" d="M114-163C36-179 61-72 57 0H25l-1-190h30c1 12-1 29 2 39 6-27 23-49 58-41v29" id="bC"/><path fill="#3a414a" d="M141-36C126-15 110 5 73 4 37 3 15-17 15-53c-1-64 63-63 125-63 3-35-9-54-41-54-24 1-41 7-42 31l-33-3c5-37 33-52 76-52 45 0 72 20 72 64v82c-1 20 7 32 28 27v20c-31 9-61-2-59-35zM48-53c0 20 12 33 32 33 41-3 63-29 60-74-43 2-92-5-92 41" id="bD"/><path fill="#3a414a" d="M177-190C167-65 218 103 67 71c-23-6-38-20-44-43l32-5c15 47 100 32 89-28v-30C133-14 115 1 83 1 29 1 15-40 15-95c0-56 16-97 71-98 29-1 48 16 59 35 1-10 0-23 2-32h30zM94-22c36 0 50-32 50-73 0-42-14-75-50-75-39 0-46 34-46 75s6 73 46 73" id="bE"/><path fill="#3a414a" d="M100-194c63 0 86 42 84 106H49c0 40 14 67 53 68 26 1 43-12 49-29l28 8c-11 28-37 45-77 45C44 4 14-33 15-96c1-61 26-98 85-98zm52 81c6-60-76-77-97-28-3 7-6 17-6 28h103" id="bF"/><g id="aj"><use transform="matrix(0.06172839506172839,0,0,0.06172839506172839,0,0)" xlink:href="#bA"/><use transform="matrix(0.06172839506172839,0,0,0.06172839506172839,14.814814814814813,0)" xlink:href="#bB"/><use transform="matrix(0.06172839506172839,0,0,0.06172839506172839,20.98765432098765,0)" xlink:href="#bx"/><use transform="matrix(0.06172839506172839,0,0,0.06172839506172839,33.33333333333333,0)" xlink:href="#bC"/><use transform="matrix(0.06172839506172839,0,0,0.06172839506172839,40.679012345679006,0)" xlink:href="#bD"/><use transform="matrix(0.06172839506172839,0,0,0.06172839506172839,53.02469135802468,0)" xlink:href="#bE"/><use transform="matrix(0.06172839506172839,0,0,0.06172839506172839,65.37037037037037,0)" xlink:href="#bF"/></g><g id="ak"><use transform="matrix(0.04938271604938272,0,0,0.04938271604938272,0,0)" xlink:href="#aS"/><use transform="matrix(0.04938271604938272,0,0,0.04938271604938272,10.814814814814815,0)" xlink:href="#ba"/><use transform="matrix(0.04938271604938272,0,0,0.04938271604938272,20.69135802469136,0)" xlink:href="#aP"/><use transform="matrix(0.04938271604938272,0,0,0.04938271604938272,31.506172839506174,0)" xlink:href="#aR"/><use transform="matrix(0.04938271604938272,0,0,0.04938271604938272,36.44444444444445,0)" xlink:href="#aZ"/><use transform="matrix(0.04938271604938272,0,0,0.04938271604938272,47.25925925925927,0)" xlink:href="#bk"/></g><g id="al"><use transform="matrix(0.04938271604938272,0,0,0.04938271604938272,0,0)" xlink:href="#aZ"/><use transform="matrix(0.04938271604938272,0,0,0.04938271604938272,10.814814814814815,0)" xlink:href="#aX"/></g><g id="am"><use transform="matrix(0.04938271604938272,0,0,0.04938271604938272,0,0)" xlink:href="#aS"/><use transform="matrix(0.04938271604938272,0,0,0.04938271604938272,10.814814814814815,0)" xlink:href="#aT"/><use transform="matrix(0.04938271604938272,0,0,0.04938271604938272,20.69135802469136,0)" xlink:href="#aU"/><use transform="matrix(0.04938271604938272,0,0,0.04938271604938272,26.567901234567902,0)" xlink:href="#aT"/><use transform="matrix(0.04938271604938272,0,0,0.04938271604938272,36.44444444444445,0)" xlink:href="#bs"/><use transform="matrix(0.04938271604938272,0,0,0.04938271604938272,47.25925925925927,0)" xlink:href="#aV"/><use transform="matrix(0.04938271604938272,0,0,0.04938271604938272,54.17283950617284,0)" xlink:href="#aW"/><use transform="matrix(0.04938271604938272,0,0,0.04938271604938272,59.111111111111114,0)" xlink:href="#bi"/><use transform="matrix(0.04938271604938272,0,0,0.04938271604938272,68.98765432098767,0)" xlink:href="#bu"/><use transform="matrix(0.04938271604938272,0,0,0.04938271604938272,78.86419753086422,0)" xlink:href="#be"/></g><linearGradient gradientUnits="userSpaceOnUse" id="an" x1="2171.45" y1="215.79" x2="2171.45" y2="95.79"><stop offset="0%" stop-color="#0078d4"/><stop offset="81.7%" stop-color="#5ea0ef"/></linearGradient><g id="ao"><use transform="matrix(0.05,0,0,0.05,0,0)" xlink:href="#aD"/><use transform="matrix(0.05,0,0,0.05,10,0)" xlink:href="#aB"/><use transform="matrix(0.05,0,0,0.05,15.949999999999998,0)" xlink:href="#aq"/><use transform="matrix(0.05,0,0,0.05,25.950000000000003,0)" xlink:href="#aG"/><use transform="matrix(0.05,0,0,0.05,35.95,0)" xlink:href="#aH"/><use transform="matrix(0.05,0,0,0.05,39.900000000000006,0)" xlink:href="#ax"/><use transform="matrix(0.05,0,0,0.05,48.900000000000006,0)" xlink:href="#av"/><use transform="matrix(0.05,0,0,0.05,53.900000000000006,0)" xlink:href="#aI"/><use transform="matrix(0.05,0,0,0.05,58.900000000000006,0)" xlink:href="#aD"/><use transform="matrix(0.05,0,0,0.05,68.9,0)" xlink:href="#aJ"/></g></defs></g></svg>